<svg xmlns="http://www.w3.org/2000/svg" xmlns:xlink="http://www.w3.org/1999/xlink" width="500" zoomAndPan="magnify" viewBox="0 0 375 374.999991" height="500" preserveAspectRatio="xMidYMid meet" version="1.0"><defs><g/><clipPath id="1044e1f250"><path d="M 165.101562 148.515625 L 285.851562 148.515625 L 285.851562 158 L 165.101562 158 Z M 165.101562 148.515625 " clip-rule="nonzero"/></clipPath><clipPath id="c8d5443ebb"><path d="M 42.46875 195.335938 L 165.46875 195.335938 L 165.46875 205 L 42.46875 205 Z M 42.46875 195.335938 " clip-rule="nonzero"/></clipPath></defs><g fill="#000000" fill-opacity="1"><g transform="translate(37.511721, 189.43638)"><g><path d="M 23.203125 0 L 13.828125 0 L -0.046875 -35.703125 L 9.640625 -35.703125 L 18.765625 -9.4375 L 27.890625 -35.703125 L 37.234375 -35.703125 Z M 23.203125 0 "/></g></g></g><g fill="#000000" fill-opacity="1"><g transform="translate(74.682163, 189.43638)"><g><path d="M 4.609375 -38.734375 C 5.484375 -39.597656 6.597656 -40.03125 7.953125 -40.03125 C 9.316406 -40.03125 10.429688 -39.597656 11.296875 -38.734375 C 12.160156 -37.867188 12.59375 -36.753906 12.59375 -35.390625 C 12.59375 -34.035156 12.160156 -32.914062 11.296875 -32.03125 C 10.429688 -31.144531 9.316406 -30.703125 7.953125 -30.703125 C 6.597656 -30.703125 5.484375 -31.144531 4.609375 -32.03125 C 3.742188 -32.914062 3.3125 -34.035156 3.3125 -35.390625 C 3.3125 -36.753906 3.742188 -37.867188 4.609375 -38.734375 Z M 12.296875 0 L 3.515625 0 L 3.515625 -27.484375 L 12.296875 -27.484375 Z M 12.296875 0 "/></g></g></g><g fill="#000000" fill-opacity="1"><g transform="translate(90.539507, 189.43638)"><g><path d="M 12.34375 -27.484375 L 12.34375 -22.84375 C 14.28125 -26.144531 17.253906 -27.828125 21.265625 -27.890625 L 21.265625 -19.9375 C 18.753906 -20.175781 16.695312 -19.757812 15.09375 -18.6875 C 13.5 -17.613281 12.582031 -16.09375 12.34375 -14.125 L 12.34375 0 L 3.515625 0 L 3.515625 -27.484375 Z M 12.34375 -27.484375 "/></g></g></g><g fill="#000000" fill-opacity="1"><g transform="translate(112.31149, 189.43638)"><g><path d="M 19.53125 -7.59375 L 21.265625 -1.484375 C 19.117188 -0.222656 16.671875 0.40625 13.921875 0.40625 C 11.203125 0.40625 9 -0.347656 7.3125 -1.859375 C 5.632812 -3.367188 4.796875 -5.519531 4.796875 -8.3125 L 4.796875 -20.453125 L 0.96875 -20.453125 L 0.96875 -26.21875 L 4.796875 -26.21875 L 4.796875 -33.859375 L 13.5625 -33.859375 L 13.5625 -26.265625 L 20.75 -26.265625 L 20.75 -20.453125 L 13.5625 -20.453125 L 13.5625 -9.6875 C 13.5625 -8.632812 13.773438 -7.859375 14.203125 -7.359375 C 14.628906 -6.867188 15.265625 -6.644531 16.109375 -6.6875 C 16.929688 -6.6875 18.070312 -6.988281 19.53125 -7.59375 Z M 19.53125 -7.59375 "/></g></g></g><g fill="#000000" fill-opacity="1"><g transform="translate(134.491385, 189.43638)"><g><path d="M 30.296875 -27.484375 L 30.296875 0 L 21.46875 0 L 21.46875 -4.53125 C 19.601562 -1.269531 16.628906 0.359375 12.546875 0.359375 C 9.554688 0.359375 7.164062 -0.59375 5.375 -2.5 C 3.59375 -4.40625 2.703125 -6.957031 2.703125 -10.15625 L 2.703125 -27.484375 L 11.53125 -27.484375 L 11.53125 -12.640625 C 11.53125 -11.015625 11.945312 -9.734375 12.78125 -8.796875 C 13.613281 -7.859375 14.722656 -7.390625 16.109375 -7.390625 C 17.773438 -7.429688 19.082031 -8.050781 20.03125 -9.25 C 20.988281 -10.457031 21.46875 -12.015625 21.46875 -13.921875 L 21.46875 -27.484375 Z M 30.296875 -27.484375 "/></g></g></g><g fill="#000000" fill-opacity="1"><g transform="translate(168.296601, 189.43638)"><g><path d="M 15.5 -27.796875 C 18.21875 -27.796875 20.640625 -27.257812 22.765625 -26.1875 C 24.890625 -25.113281 26.550781 -23.59375 27.75 -21.625 L 21.421875 -17.796875 C 20.054688 -19.703125 18.203125 -20.65625 15.859375 -20.65625 C 14.160156 -20.65625 12.773438 -20.015625 11.703125 -18.734375 C 10.628906 -17.460938 10.09375 -15.789062 10.09375 -13.71875 C 10.09375 -11.613281 10.617188 -9.921875 11.671875 -8.640625 C 12.734375 -7.367188 14.128906 -6.734375 15.859375 -6.734375 C 18.441406 -6.734375 20.3125 -7.769531 21.46875 -9.84375 L 27.890625 -6.0625 C 26.773438 -4.03125 25.132812 -2.457031 22.96875 -1.34375 C 20.8125 -0.238281 18.289062 0.3125 15.40625 0.3125 C 11.15625 0.3125 7.726562 -0.96875 5.125 -3.53125 C 2.519531 -6.101562 1.21875 -9.484375 1.21875 -13.671875 C 1.21875 -17.878906 2.535156 -21.285156 5.171875 -23.890625 C 7.804688 -26.492188 11.25 -27.796875 15.5 -27.796875 Z M 15.5 -27.796875 "/></g></g></g><g fill="#000000" fill-opacity="1"><g transform="translate(196.951999, 189.43638)"><g><path d="M 12.34375 -27.484375 L 12.34375 -22.84375 C 14.28125 -26.144531 17.253906 -27.828125 21.265625 -27.890625 L 21.265625 -19.9375 C 18.753906 -20.175781 16.695312 -19.757812 15.09375 -18.6875 C 13.5 -17.613281 12.582031 -16.09375 12.34375 -14.125 L 12.34375 0 L 3.515625 0 L 3.515625 -27.484375 Z M 12.34375 -27.484375 "/></g></g></g><g fill="#000000" fill-opacity="1"><g transform="translate(218.723981, 189.43638)"><g><path d="M 16.265625 -27.796875 C 20.753906 -27.796875 24.375 -26.507812 27.125 -23.9375 C 29.882812 -21.375 31.265625 -17.984375 31.265625 -13.765625 C 31.265625 -9.554688 29.882812 -6.15625 27.125 -3.5625 C 24.375 -0.976562 20.753906 0.3125 16.265625 0.3125 C 11.742188 0.3125 8.101562 -0.976562 5.34375 -3.5625 C 2.59375 -6.15625 1.21875 -9.554688 1.21875 -13.765625 C 1.21875 -17.984375 2.59375 -21.375 5.34375 -23.9375 C 8.101562 -26.507812 11.742188 -27.796875 16.265625 -27.796875 Z M 16.265625 -20.8125 C 14.429688 -20.8125 12.941406 -20.144531 11.796875 -18.8125 C 10.660156 -17.488281 10.09375 -15.773438 10.09375 -13.671875 C 10.09375 -11.523438 10.660156 -9.796875 11.796875 -8.484375 C 12.941406 -7.179688 14.429688 -6.53125 16.265625 -6.53125 C 18.066406 -6.53125 19.535156 -7.179688 20.671875 -8.484375 C 21.816406 -9.796875 22.390625 -11.523438 22.390625 -13.671875 C 22.390625 -15.773438 21.816406 -17.488281 20.671875 -18.8125 C 19.535156 -20.144531 18.066406 -20.8125 16.265625 -20.8125 Z M 16.265625 -20.8125 "/></g></g></g><g fill="#000000" fill-opacity="1"><g transform="translate(251.203502, 189.43638)"><g><path d="M 20.8125 -27.796875 C 24.6875 -27.796875 27.804688 -26.492188 30.171875 -23.890625 C 32.535156 -21.285156 33.71875 -17.859375 33.71875 -13.609375 C 33.71875 -9.429688 32.5625 -6.066406 30.25 -3.515625 C 27.9375 -0.960938 24.859375 0.3125 21.015625 0.3125 C 17.410156 0.3125 14.601562 -1.015625 12.59375 -3.671875 L 12.59375 9.890625 L 3.78125 9.890625 L 3.78125 -27.484375 L 12.59375 -27.484375 L 12.59375 -23.875 C 14.632812 -26.488281 17.375 -27.796875 20.8125 -27.796875 Z M 18.671875 -6.6875 C 20.503906 -6.6875 21.988281 -7.351562 23.125 -8.6875 C 24.269531 -10.03125 24.84375 -11.753906 24.84375 -13.859375 C 24.84375 -15.972656 24.269531 -17.691406 23.125 -19.015625 C 21.988281 -20.347656 20.503906 -21.015625 18.671875 -21.015625 C 16.898438 -21.015625 15.441406 -20.347656 14.296875 -19.015625 C 13.160156 -17.691406 12.59375 -15.976562 12.59375 -13.875 C 12.59375 -11.726562 13.15625 -9.992188 14.28125 -8.671875 C 15.40625 -7.347656 16.867188 -6.6875 18.671875 -6.6875 Z M 18.671875 -6.6875 "/></g></g></g><g clip-path="url(#1044e1f250)"><path fill="#004aad" d="M 165.101562 148.546875 L 286.15625 148.546875 L 286.15625 157.859375 L 165.101562 157.859375 Z M 165.101562 148.546875 " fill-opacity="1" fill-rule="nonzero"/></g><g clip-path="url(#c8d5443ebb)"><path fill="#004aad" d="M 42.46875 195.371094 L 165.09375 195.371094 L 165.09375 204.800781 L 42.46875 204.800781 Z M 42.46875 195.371094 " fill-opacity="1" fill-rule="nonzero"/></g><g fill="#000000" fill-opacity="1"><g transform="translate(40.421389, 142.899344)"><g><path d="M 3.484375 0.0625 C 2.890625 0.0625 2.320312 -0.03125 1.78125 -0.21875 C 1.238281 -0.40625 0.820312 -0.65625 0.53125 -0.96875 L 0.859375 -1.609375 C 1.148438 -1.316406 1.53125 -1.082031 2 -0.90625 C 2.476562 -0.726562 2.972656 -0.640625 3.484375 -0.640625 C 4.191406 -0.640625 4.722656 -0.769531 5.078125 -1.03125 C 5.429688 -1.289062 5.609375 -1.628906 5.609375 -2.046875 C 5.609375 -2.367188 5.507812 -2.625 5.3125 -2.8125 C 5.125 -3 4.890625 -3.144531 4.609375 -3.25 C 4.328125 -3.351562 3.9375 -3.460938 3.4375 -3.578125 C 2.84375 -3.734375 2.367188 -3.878906 2.015625 -4.015625 C 1.660156 -4.148438 1.351562 -4.363281 1.09375 -4.65625 C 0.84375 -4.945312 0.71875 -5.335938 0.71875 -5.828125 C 0.71875 -6.222656 0.820312 -6.582031 1.03125 -6.90625 C 1.25 -7.238281 1.578125 -7.503906 2.015625 -7.703125 C 2.453125 -7.898438 2.992188 -8 3.640625 -8 C 4.097656 -8 4.539062 -7.9375 4.96875 -7.8125 C 5.40625 -7.6875 5.785156 -7.515625 6.109375 -7.296875 L 5.828125 -6.625 C 5.492188 -6.84375 5.132812 -7.003906 4.75 -7.109375 C 4.375 -7.222656 4.003906 -7.28125 3.640625 -7.28125 C 2.953125 -7.28125 2.429688 -7.144531 2.078125 -6.875 C 1.722656 -6.613281 1.546875 -6.269531 1.546875 -5.84375 C 1.546875 -5.53125 1.640625 -5.273438 1.828125 -5.078125 C 2.023438 -4.890625 2.269531 -4.742188 2.5625 -4.640625 C 2.851562 -4.535156 3.242188 -4.425781 3.734375 -4.3125 C 4.316406 -4.164062 4.785156 -4.019531 5.140625 -3.875 C 5.503906 -3.738281 5.8125 -3.53125 6.0625 -3.25 C 6.3125 -2.96875 6.4375 -2.582031 6.4375 -2.09375 C 6.4375 -1.695312 6.328125 -1.332031 6.109375 -1 C 5.890625 -0.675781 5.554688 -0.414062 5.109375 -0.21875 C 4.671875 -0.03125 4.128906 0.0625 3.484375 0.0625 Z M 3.484375 0.0625 "/></g></g></g><g fill="#000000" fill-opacity="1"><g transform="translate(47.385299, 142.899344)"><g><path d="M 6.3125 -2.734375 L 1.328125 -2.734375 C 1.367188 -2.109375 1.601562 -1.601562 2.03125 -1.21875 C 2.46875 -0.84375 3.015625 -0.65625 3.671875 -0.65625 C 4.035156 -0.65625 4.375 -0.71875 4.6875 -0.84375 C 5 -0.976562 5.269531 -1.175781 5.5 -1.4375 L 5.953125 -0.921875 C 5.679688 -0.597656 5.347656 -0.351562 4.953125 -0.1875 C 4.554688 -0.0195312 4.117188 0.0625 3.640625 0.0625 C 3.035156 0.0625 2.492188 -0.0664062 2.015625 -0.328125 C 1.546875 -0.585938 1.175781 -0.945312 0.90625 -1.40625 C 0.644531 -1.875 0.515625 -2.398438 0.515625 -2.984375 C 0.515625 -3.566406 0.640625 -4.085938 0.890625 -4.546875 C 1.148438 -5.003906 1.5 -5.359375 1.9375 -5.609375 C 2.382812 -5.867188 2.882812 -6 3.4375 -6 C 3.988281 -6 4.484375 -5.867188 4.921875 -5.609375 C 5.359375 -5.359375 5.703125 -5.003906 5.953125 -4.546875 C 6.203125 -4.085938 6.328125 -3.566406 6.328125 -2.984375 Z M 3.4375 -5.3125 C 2.863281 -5.3125 2.378906 -5.128906 1.984375 -4.765625 C 1.597656 -4.398438 1.378906 -3.921875 1.328125 -3.328125 L 5.546875 -3.328125 C 5.492188 -3.921875 5.273438 -4.398438 4.890625 -4.765625 C 4.503906 -5.128906 4.019531 -5.3125 3.4375 -5.3125 Z M 3.4375 -5.3125 "/></g></g></g><g fill="#000000" fill-opacity="1"><g transform="translate(54.224647, 142.899344)"><g><path d="M 6.3125 -2.734375 L 1.328125 -2.734375 C 1.367188 -2.109375 1.601562 -1.601562 2.03125 -1.21875 C 2.46875 -0.84375 3.015625 -0.65625 3.671875 -0.65625 C 4.035156 -0.65625 4.375 -0.71875 4.6875 -0.84375 C 5 -0.976562 5.269531 -1.175781 5.5 -1.4375 L 5.953125 -0.921875 C 5.679688 -0.597656 5.347656 -0.351562 4.953125 -0.1875 C 4.554688 -0.0195312 4.117188 0.0625 3.640625 0.0625 C 3.035156 0.0625 2.492188 -0.0664062 2.015625 -0.328125 C 1.546875 -0.585938 1.175781 -0.945312 0.90625 -1.40625 C 0.644531 -1.875 0.515625 -2.398438 0.515625 -2.984375 C 0.515625 -3.566406 0.640625 -4.085938 0.890625 -4.546875 C 1.148438 -5.003906 1.5 -5.359375 1.9375 -5.609375 C 2.382812 -5.867188 2.882812 -6 3.4375 -6 C 3.988281 -6 4.484375 -5.867188 4.921875 -5.609375 C 5.359375 -5.359375 5.703125 -5.003906 5.953125 -4.546875 C 6.203125 -4.085938 6.328125 -3.566406 6.328125 -2.984375 Z M 3.4375 -5.3125 C 2.863281 -5.3125 2.378906 -5.128906 1.984375 -4.765625 C 1.597656 -4.398438 1.378906 -3.921875 1.328125 -3.328125 L 5.546875 -3.328125 C 5.492188 -3.921875 5.273438 -4.398438 4.890625 -4.765625 C 4.503906 -5.128906 4.019531 -5.3125 3.4375 -5.3125 Z M 3.4375 -5.3125 "/></g></g></g><g fill="#000000" fill-opacity="1"><g transform="translate(61.063996, 142.899344)"><g><path d="M 6.5625 -8.40625 L 6.5625 0 L 5.78125 0 L 5.78125 -1.171875 C 5.539062 -0.773438 5.222656 -0.46875 4.828125 -0.25 C 4.429688 -0.0390625 3.984375 0.0625 3.484375 0.0625 C 2.929688 0.0625 2.425781 -0.0664062 1.96875 -0.328125 C 1.519531 -0.585938 1.164062 -0.945312 0.90625 -1.40625 C 0.644531 -1.863281 0.515625 -2.390625 0.515625 -2.984375 C 0.515625 -3.566406 0.644531 -4.085938 0.90625 -4.546875 C 1.164062 -5.015625 1.519531 -5.375 1.96875 -5.625 C 2.425781 -5.875 2.929688 -6 3.484375 -6 C 3.972656 -6 4.410156 -5.898438 4.796875 -5.703125 C 5.179688 -5.503906 5.5 -5.210938 5.75 -4.828125 L 5.75 -8.40625 Z M 3.5625 -0.65625 C 3.976562 -0.65625 4.351562 -0.75 4.6875 -0.9375 C 5.019531 -1.132812 5.28125 -1.410156 5.46875 -1.765625 C 5.664062 -2.117188 5.765625 -2.523438 5.765625 -2.984375 C 5.765625 -3.429688 5.664062 -3.832031 5.46875 -4.1875 C 5.28125 -4.539062 5.019531 -4.8125 4.6875 -5 C 4.351562 -5.195312 3.976562 -5.296875 3.5625 -5.296875 C 3.132812 -5.296875 2.753906 -5.195312 2.421875 -5 C 2.085938 -4.8125 1.820312 -4.539062 1.625 -4.1875 C 1.4375 -3.832031 1.34375 -3.429688 1.34375 -2.984375 C 1.34375 -2.523438 1.4375 -2.117188 1.625 -1.765625 C 1.820312 -1.410156 2.085938 -1.132812 2.421875 -0.9375 C 2.753906 -0.75 3.132812 -0.65625 3.5625 -0.65625 Z M 3.5625 -0.65625 "/></g></g></g><g fill="#000000" fill-opacity="1"><g transform="translate(68.741289, 142.899344)"><g><path d="M 2.71875 0.0625 C 2.238281 0.0625 1.773438 -0.00390625 1.328125 -0.140625 C 0.890625 -0.285156 0.546875 -0.46875 0.296875 -0.6875 L 0.65625 -1.3125 C 0.90625 -1.113281 1.21875 -0.953125 1.59375 -0.828125 C 1.96875 -0.703125 2.363281 -0.640625 2.78125 -0.640625 C 3.320312 -0.640625 3.722656 -0.722656 3.984375 -0.890625 C 4.242188 -1.066406 4.375 -1.3125 4.375 -1.625 C 4.375 -1.84375 4.300781 -2.015625 4.15625 -2.140625 C 4.007812 -2.265625 3.828125 -2.359375 3.609375 -2.421875 C 3.390625 -2.484375 3.097656 -2.546875 2.734375 -2.609375 C 2.253906 -2.691406 1.867188 -2.78125 1.578125 -2.875 C 1.285156 -2.976562 1.035156 -3.140625 0.828125 -3.359375 C 0.617188 -3.585938 0.515625 -3.90625 0.515625 -4.3125 C 0.515625 -4.800781 0.71875 -5.203125 1.125 -5.515625 C 1.539062 -5.835938 2.117188 -6 2.859375 -6 C 3.242188 -6 3.628906 -5.945312 4.015625 -5.84375 C 4.398438 -5.75 4.71875 -5.617188 4.96875 -5.453125 L 4.625 -4.796875 C 4.132812 -5.140625 3.546875 -5.3125 2.859375 -5.3125 C 2.347656 -5.3125 1.960938 -5.21875 1.703125 -5.03125 C 1.441406 -4.851562 1.3125 -4.617188 1.3125 -4.328125 C 1.3125 -4.097656 1.382812 -3.914062 1.53125 -3.78125 C 1.675781 -3.644531 1.859375 -3.546875 2.078125 -3.484375 C 2.296875 -3.421875 2.597656 -3.351562 2.984375 -3.28125 C 3.460938 -3.195312 3.84375 -3.109375 4.125 -3.015625 C 4.414062 -2.921875 4.660156 -2.765625 4.859375 -2.546875 C 5.066406 -2.328125 5.171875 -2.023438 5.171875 -1.640625 C 5.171875 -1.117188 4.953125 -0.703125 4.515625 -0.390625 C 4.085938 -0.0859375 3.488281 0.0625 2.71875 0.0625 Z M 2.71875 0.0625 "/></g></g></g><g fill="#000000" fill-opacity="1"><g transform="translate(74.278446, 142.899344)"><g/></g></g><g fill="#000000" fill-opacity="1"><g transform="translate(77.245184, 142.899344)"><g><path d="M 3.5625 0.0625 C 2.988281 0.0625 2.46875 -0.0664062 2 -0.328125 C 1.539062 -0.585938 1.175781 -0.945312 0.90625 -1.40625 C 0.644531 -1.875 0.515625 -2.398438 0.515625 -2.984375 C 0.515625 -3.566406 0.644531 -4.085938 0.90625 -4.546875 C 1.175781 -5.003906 1.539062 -5.359375 2 -5.609375 C 2.46875 -5.867188 2.988281 -6 3.5625 -6 C 4.132812 -6 4.648438 -5.867188 5.109375 -5.609375 C 5.566406 -5.359375 5.925781 -5.003906 6.1875 -4.546875 C 6.445312 -4.085938 6.578125 -3.566406 6.578125 -2.984375 C 6.578125 -2.398438 6.445312 -1.875 6.1875 -1.40625 C 5.925781 -0.945312 5.566406 -0.585938 5.109375 -0.328125 C 4.648438 -0.0664062 4.132812 0.0625 3.5625 0.0625 Z M 3.5625 -0.65625 C 3.976562 -0.65625 4.351562 -0.75 4.6875 -0.9375 C 5.03125 -1.132812 5.296875 -1.410156 5.484375 -1.765625 C 5.671875 -2.117188 5.765625 -2.523438 5.765625 -2.984375 C 5.765625 -3.429688 5.671875 -3.832031 5.484375 -4.1875 C 5.296875 -4.539062 5.03125 -4.8125 4.6875 -5 C 4.351562 -5.195312 3.976562 -5.296875 3.5625 -5.296875 C 3.132812 -5.296875 2.753906 -5.195312 2.421875 -5 C 2.085938 -4.8125 1.820312 -4.539062 1.625 -4.1875 C 1.4375 -3.832031 1.34375 -3.429688 1.34375 -2.984375 C 1.34375 -2.523438 1.4375 -2.117188 1.625 -1.765625 C 1.820312 -1.410156 2.085938 -1.132812 2.421875 -0.9375 C 2.753906 -0.75 3.132812 -0.65625 3.5625 -0.65625 Z M 3.5625 -0.65625 "/></g></g></g><g fill="#000000" fill-opacity="1"><g transform="translate(84.344974, 142.899344)"><g><path d="M 3.09375 -7.78125 C 2.75 -7.78125 2.488281 -7.6875 2.3125 -7.5 C 2.132812 -7.3125 2.046875 -7.03125 2.046875 -6.65625 L 2.046875 -5.953125 L 3.875 -5.953125 L 3.875 -5.28125 L 2.0625 -5.28125 L 2.0625 0 L 1.25 0 L 1.25 -5.28125 L 0.1875 -5.28125 L 0.1875 -5.953125 L 1.25 -5.953125 L 1.25 -6.6875 C 1.25 -7.238281 1.40625 -7.671875 1.71875 -7.984375 C 2.039062 -8.304688 2.488281 -8.46875 3.0625 -8.46875 C 3.289062 -8.46875 3.507812 -8.429688 3.71875 -8.359375 C 3.925781 -8.296875 4.101562 -8.207031 4.25 -8.09375 L 3.96875 -7.484375 C 3.738281 -7.679688 3.445312 -7.78125 3.09375 -7.78125 Z M 3.09375 -7.78125 "/></g></g></g><g fill="#000000" fill-opacity="1"><g transform="translate(88.18362, 142.899344)"><g/></g></g><g fill="#000000" fill-opacity="1"><g transform="translate(91.150359, 142.899344)"><g><path d="M 1.296875 -7.9375 L 2.125 -7.9375 L 2.125 0 L 1.296875 0 Z M 1.296875 -7.9375 "/></g></g></g><g fill="#000000" fill-opacity="1"><g transform="translate(94.570039, 142.899344)"><g><path d="M 4.15625 -6 C 4.90625 -6 5.5 -5.78125 5.9375 -5.34375 C 6.382812 -4.914062 6.609375 -4.285156 6.609375 -3.453125 L 6.609375 0 L 5.796875 0 L 5.796875 -3.375 C 5.796875 -4 5.640625 -4.472656 5.328125 -4.796875 C 5.023438 -5.117188 4.585938 -5.28125 4.015625 -5.28125 C 3.367188 -5.28125 2.859375 -5.085938 2.484375 -4.703125 C 2.109375 -4.328125 1.921875 -3.800781 1.921875 -3.125 L 1.921875 0 L 1.125 0 L 1.125 -5.953125 L 1.890625 -5.953125 L 1.890625 -4.859375 C 2.109375 -5.222656 2.410156 -5.503906 2.796875 -5.703125 C 3.191406 -5.898438 3.644531 -6 4.15625 -6 Z M 4.15625 -6 "/></g></g></g><g fill="#000000" fill-opacity="1"><g transform="translate(102.236002, 142.899344)"><g><path d="M 4.15625 -6 C 4.90625 -6 5.5 -5.78125 5.9375 -5.34375 C 6.382812 -4.914062 6.609375 -4.285156 6.609375 -3.453125 L 6.609375 0 L 5.796875 0 L 5.796875 -3.375 C 5.796875 -4 5.640625 -4.472656 5.328125 -4.796875 C 5.023438 -5.117188 4.585938 -5.28125 4.015625 -5.28125 C 3.367188 -5.28125 2.859375 -5.085938 2.484375 -4.703125 C 2.109375 -4.328125 1.921875 -3.800781 1.921875 -3.125 L 1.921875 0 L 1.125 0 L 1.125 -5.953125 L 1.890625 -5.953125 L 1.890625 -4.859375 C 2.109375 -5.222656 2.410156 -5.503906 2.796875 -5.703125 C 3.191406 -5.898438 3.644531 -6 4.15625 -6 Z M 4.15625 -6 "/></g></g></g><g fill="#000000" fill-opacity="1"><g transform="translate(109.901966, 142.899344)"><g><path d="M 3.5625 0.0625 C 2.988281 0.0625 2.46875 -0.0664062 2 -0.328125 C 1.539062 -0.585938 1.175781 -0.945312 0.90625 -1.40625 C 0.644531 -1.875 0.515625 -2.398438 0.515625 -2.984375 C 0.515625 -3.566406 0.644531 -4.085938 0.90625 -4.546875 C 1.175781 -5.003906 1.539062 -5.359375 2 -5.609375 C 2.46875 -5.867188 2.988281 -6 3.5625 -6 C 4.132812 -6 4.648438 -5.867188 5.109375 -5.609375 C 5.566406 -5.359375 5.925781 -5.003906 6.1875 -4.546875 C 6.445312 -4.085938 6.578125 -3.566406 6.578125 -2.984375 C 6.578125 -2.398438 6.445312 -1.875 6.1875 -1.40625 C 5.925781 -0.945312 5.566406 -0.585938 5.109375 -0.328125 C 4.648438 -0.0664062 4.132812 0.0625 3.5625 0.0625 Z M 3.5625 -0.65625 C 3.976562 -0.65625 4.351562 -0.75 4.6875 -0.9375 C 5.03125 -1.132812 5.296875 -1.410156 5.484375 -1.765625 C 5.671875 -2.117188 5.765625 -2.523438 5.765625 -2.984375 C 5.765625 -3.429688 5.671875 -3.832031 5.484375 -4.1875 C 5.296875 -4.539062 5.03125 -4.8125 4.6875 -5 C 4.351562 -5.195312 3.976562 -5.296875 3.5625 -5.296875 C 3.132812 -5.296875 2.753906 -5.195312 2.421875 -5 C 2.085938 -4.8125 1.820312 -4.539062 1.625 -4.1875 C 1.4375 -3.832031 1.34375 -3.429688 1.34375 -2.984375 C 1.34375 -2.523438 1.4375 -2.117188 1.625 -1.765625 C 1.820312 -1.410156 2.085938 -1.132812 2.421875 -0.9375 C 2.753906 -0.75 3.132812 -0.65625 3.5625 -0.65625 Z M 3.5625 -0.65625 "/></g></g></g><g fill="#000000" fill-opacity="1"><g transform="translate(117.001755, 142.899344)"><g><path d="M 6.125 -5.953125 L 3.484375 0 L 2.65625 0 L 0.015625 -5.953125 L 0.84375 -5.953125 L 3.078125 -0.890625 L 5.328125 -5.953125 Z M 6.125 -5.953125 "/></g></g></g><g fill="#000000" fill-opacity="1"><g transform="translate(123.13905, 142.899344)"><g><path d="M 3.203125 -6 C 3.984375 -6 4.582031 -5.804688 5 -5.421875 C 5.414062 -5.035156 5.625 -4.457031 5.625 -3.6875 L 5.625 0 L 4.84375 0 L 4.84375 -0.921875 C 4.664062 -0.617188 4.398438 -0.378906 4.046875 -0.203125 C 3.691406 -0.0234375 3.273438 0.0625 2.796875 0.0625 C 2.128906 0.0625 1.597656 -0.09375 1.203125 -0.40625 C 0.816406 -0.726562 0.625 -1.148438 0.625 -1.671875 C 0.625 -2.179688 0.804688 -2.585938 1.171875 -2.890625 C 1.535156 -3.203125 2.117188 -3.359375 2.921875 -3.359375 L 4.8125 -3.359375 L 4.8125 -3.734375 C 4.8125 -4.242188 4.664062 -4.628906 4.375 -4.890625 C 4.09375 -5.160156 3.675781 -5.296875 3.125 -5.296875 C 2.75 -5.296875 2.382812 -5.234375 2.03125 -5.109375 C 1.6875 -4.984375 1.390625 -4.8125 1.140625 -4.59375 L 0.78125 -5.203125 C 1.082031 -5.453125 1.441406 -5.644531 1.859375 -5.78125 C 2.285156 -5.925781 2.734375 -6 3.203125 -6 Z M 2.921875 -0.578125 C 3.378906 -0.578125 3.769531 -0.679688 4.09375 -0.890625 C 4.414062 -1.097656 4.65625 -1.398438 4.8125 -1.796875 L 4.8125 -2.765625 L 2.953125 -2.765625 C 1.929688 -2.765625 1.421875 -2.410156 1.421875 -1.703125 C 1.421875 -1.347656 1.550781 -1.070312 1.8125 -0.875 C 2.070312 -0.675781 2.441406 -0.578125 2.921875 -0.578125 Z M 2.921875 -0.578125 "/></g></g></g><g fill="#000000" fill-opacity="1"><g transform="translate(129.819874, 142.899344)"><g><path d="M 4.265625 -0.359375 C 4.109375 -0.222656 3.914062 -0.117188 3.6875 -0.046875 C 3.46875 0.0234375 3.238281 0.0625 3 0.0625 C 2.4375 0.0625 2.003906 -0.0859375 1.703125 -0.390625 C 1.398438 -0.691406 1.25 -1.117188 1.25 -1.671875 L 1.25 -5.28125 L 0.1875 -5.28125 L 0.1875 -5.953125 L 1.25 -5.953125 L 1.25 -7.265625 L 2.0625 -7.265625 L 2.0625 -5.953125 L 3.875 -5.953125 L 3.875 -5.28125 L 2.0625 -5.28125 L 2.0625 -1.71875 C 2.0625 -1.363281 2.148438 -1.09375 2.328125 -0.90625 C 2.503906 -0.726562 2.757812 -0.640625 3.09375 -0.640625 C 3.257812 -0.640625 3.421875 -0.664062 3.578125 -0.71875 C 3.734375 -0.769531 3.863281 -0.84375 3.96875 -0.9375 Z M 4.265625 -0.359375 "/></g></g></g><g fill="#000000" fill-opacity="1"><g transform="translate(134.417183, 142.899344)"><g><path d="M 1.125 -5.953125 L 1.921875 -5.953125 L 1.921875 0 L 1.125 0 Z M 1.515625 -7.265625 C 1.359375 -7.265625 1.222656 -7.316406 1.109375 -7.421875 C 0.992188 -7.535156 0.9375 -7.675781 0.9375 -7.84375 C 0.9375 -7.988281 0.992188 -8.117188 1.109375 -8.234375 C 1.222656 -8.347656 1.359375 -8.40625 1.515625 -8.40625 C 1.679688 -8.40625 1.820312 -8.347656 1.9375 -8.234375 C 2.050781 -8.128906 2.109375 -8 2.109375 -7.84375 C 2.109375 -7.675781 2.050781 -7.535156 1.9375 -7.421875 C 1.820312 -7.316406 1.679688 -7.265625 1.515625 -7.265625 Z M 1.515625 -7.265625 "/></g></g></g><g fill="#000000" fill-opacity="1"><g transform="translate(137.463191, 142.899344)"><g><path d="M 3.5625 0.0625 C 2.988281 0.0625 2.46875 -0.0664062 2 -0.328125 C 1.539062 -0.585938 1.175781 -0.945312 0.90625 -1.40625 C 0.644531 -1.875 0.515625 -2.398438 0.515625 -2.984375 C 0.515625 -3.566406 0.644531 -4.085938 0.90625 -4.546875 C 1.175781 -5.003906 1.539062 -5.359375 2 -5.609375 C 2.46875 -5.867188 2.988281 -6 3.5625 -6 C 4.132812 -6 4.648438 -5.867188 5.109375 -5.609375 C 5.566406 -5.359375 5.925781 -5.003906 6.1875 -4.546875 C 6.445312 -4.085938 6.578125 -3.566406 6.578125 -2.984375 C 6.578125 -2.398438 6.445312 -1.875 6.1875 -1.40625 C 5.925781 -0.945312 5.566406 -0.585938 5.109375 -0.328125 C 4.648438 -0.0664062 4.132812 0.0625 3.5625 0.0625 Z M 3.5625 -0.65625 C 3.976562 -0.65625 4.351562 -0.75 4.6875 -0.9375 C 5.03125 -1.132812 5.296875 -1.410156 5.484375 -1.765625 C 5.671875 -2.117188 5.765625 -2.523438 5.765625 -2.984375 C 5.765625 -3.429688 5.671875 -3.832031 5.484375 -4.1875 C 5.296875 -4.539062 5.03125 -4.8125 4.6875 -5 C 4.351562 -5.195312 3.976562 -5.296875 3.5625 -5.296875 C 3.132812 -5.296875 2.753906 -5.195312 2.421875 -5 C 2.085938 -4.8125 1.820312 -4.539062 1.625 -4.1875 C 1.4375 -3.832031 1.34375 -3.429688 1.34375 -2.984375 C 1.34375 -2.523438 1.4375 -2.117188 1.625 -1.765625 C 1.820312 -1.410156 2.085938 -1.132812 2.421875 -0.9375 C 2.753906 -0.75 3.132812 -0.65625 3.5625 -0.65625 Z M 3.5625 -0.65625 "/></g></g></g><g fill="#000000" fill-opacity="1"><g transform="translate(144.56298, 142.899344)"><g><path d="M 4.15625 -6 C 4.90625 -6 5.5 -5.78125 5.9375 -5.34375 C 6.382812 -4.914062 6.609375 -4.285156 6.609375 -3.453125 L 6.609375 0 L 5.796875 0 L 5.796875 -3.375 C 5.796875 -4 5.640625 -4.472656 5.328125 -4.796875 C 5.023438 -5.117188 4.585938 -5.28125 4.015625 -5.28125 C 3.367188 -5.28125 2.859375 -5.085938 2.484375 -4.703125 C 2.109375 -4.328125 1.921875 -3.800781 1.921875 -3.125 L 1.921875 0 L 1.125 0 L 1.125 -5.953125 L 1.890625 -5.953125 L 1.890625 -4.859375 C 2.109375 -5.222656 2.410156 -5.503906 2.796875 -5.703125 C 3.191406 -5.898438 3.644531 -6 4.15625 -6 Z M 4.15625 -6 "/></g></g></g><g fill="#000000" fill-opacity="1"><g transform="translate(152.228943, 142.899344)"><g><path d="M 1.21875 -1.171875 C 1.382812 -1.171875 1.523438 -1.113281 1.640625 -1 C 1.753906 -0.882812 1.8125 -0.738281 1.8125 -0.5625 C 1.8125 -0.476562 1.796875 -0.378906 1.765625 -0.265625 C 1.742188 -0.160156 1.707031 -0.0390625 1.65625 0.09375 L 1.171875 1.65625 L 0.640625 1.65625 L 1.015625 0.015625 C 0.898438 -0.0234375 0.800781 -0.09375 0.71875 -0.1875 C 0.644531 -0.289062 0.609375 -0.414062 0.609375 -0.5625 C 0.609375 -0.738281 0.664062 -0.882812 0.78125 -1 C 0.894531 -1.113281 1.039062 -1.171875 1.21875 -1.171875 Z M 1.21875 -1.171875 "/></g></g></g><g fill="#000000" fill-opacity="1"><g transform="translate(154.629508, 142.899344)"><g/></g></g><g fill="#000000" fill-opacity="1"><g transform="translate(157.596246, 142.899344)"><g><path d="M 7.921875 -7.9375 L 7.921875 0 L 7.09375 0 L 7.09375 -3.65625 L 2.125 -3.65625 L 2.125 0 L 1.296875 0 L 1.296875 -7.9375 L 2.125 -7.9375 L 2.125 -4.390625 L 7.09375 -4.390625 L 7.09375 -7.9375 Z M 7.921875 -7.9375 "/></g></g></g><g fill="#000000" fill-opacity="1"><g transform="translate(166.802195, 142.899344)"><g><path d="M 3.203125 -6 C 3.984375 -6 4.582031 -5.804688 5 -5.421875 C 5.414062 -5.035156 5.625 -4.457031 5.625 -3.6875 L 5.625 0 L 4.84375 0 L 4.84375 -0.921875 C 4.664062 -0.617188 4.398438 -0.378906 4.046875 -0.203125 C 3.691406 -0.0234375 3.273438 0.0625 2.796875 0.0625 C 2.128906 0.0625 1.597656 -0.09375 1.203125 -0.40625 C 0.816406 -0.726562 0.625 -1.148438 0.625 -1.671875 C 0.625 -2.179688 0.804688 -2.585938 1.171875 -2.890625 C 1.535156 -3.203125 2.117188 -3.359375 2.921875 -3.359375 L 4.8125 -3.359375 L 4.8125 -3.734375 C 4.8125 -4.242188 4.664062 -4.628906 4.375 -4.890625 C 4.09375 -5.160156 3.675781 -5.296875 3.125 -5.296875 C 2.75 -5.296875 2.382812 -5.234375 2.03125 -5.109375 C 1.6875 -4.984375 1.390625 -4.8125 1.140625 -4.59375 L 0.78125 -5.203125 C 1.082031 -5.453125 1.441406 -5.644531 1.859375 -5.78125 C 2.285156 -5.925781 2.734375 -6 3.203125 -6 Z M 2.921875 -0.578125 C 3.378906 -0.578125 3.769531 -0.679688 4.09375 -0.890625 C 4.414062 -1.097656 4.65625 -1.398438 4.8125 -1.796875 L 4.8125 -2.765625 L 2.953125 -2.765625 C 1.929688 -2.765625 1.421875 -2.410156 1.421875 -1.703125 C 1.421875 -1.347656 1.550781 -1.070312 1.8125 -0.875 C 2.070312 -0.675781 2.441406 -0.578125 2.921875 -0.578125 Z M 2.921875 -0.578125 "/></g></g></g><g fill="#000000" fill-opacity="1"><g transform="translate(173.483018, 142.899344)"><g><path d="M 1.890625 -4.796875 C 2.078125 -5.191406 2.359375 -5.488281 2.734375 -5.6875 C 3.109375 -5.894531 3.570312 -6 4.125 -6 L 4.125 -5.21875 L 3.9375 -5.234375 C 3.300781 -5.234375 2.804688 -5.039062 2.453125 -4.65625 C 2.097656 -4.269531 1.921875 -3.726562 1.921875 -3.03125 L 1.921875 0 L 1.125 0 L 1.125 -5.953125 L 1.890625 -5.953125 Z M 1.890625 -4.796875 "/></g></g></g><g fill="#000000" fill-opacity="1"><g transform="translate(178.023718, 142.899344)"><g><path d="M 6.125 -5.953125 L 3.484375 0 L 2.65625 0 L 0.015625 -5.953125 L 0.84375 -5.953125 L 3.078125 -0.890625 L 5.328125 -5.953125 Z M 6.125 -5.953125 "/></g></g></g><g fill="#000000" fill-opacity="1"><g transform="translate(184.161013, 142.899344)"><g><path d="M 6.3125 -2.734375 L 1.328125 -2.734375 C 1.367188 -2.109375 1.601562 -1.601562 2.03125 -1.21875 C 2.46875 -0.84375 3.015625 -0.65625 3.671875 -0.65625 C 4.035156 -0.65625 4.375 -0.71875 4.6875 -0.84375 C 5 -0.976562 5.269531 -1.175781 5.5 -1.4375 L 5.953125 -0.921875 C 5.679688 -0.597656 5.347656 -0.351562 4.953125 -0.1875 C 4.554688 -0.0195312 4.117188 0.0625 3.640625 0.0625 C 3.035156 0.0625 2.492188 -0.0664062 2.015625 -0.328125 C 1.546875 -0.585938 1.175781 -0.945312 0.90625 -1.40625 C 0.644531 -1.875 0.515625 -2.398438 0.515625 -2.984375 C 0.515625 -3.566406 0.640625 -4.085938 0.890625 -4.546875 C 1.148438 -5.003906 1.5 -5.359375 1.9375 -5.609375 C 2.382812 -5.867188 2.882812 -6 3.4375 -6 C 3.988281 -6 4.484375 -5.867188 4.921875 -5.609375 C 5.359375 -5.359375 5.703125 -5.003906 5.953125 -4.546875 C 6.203125 -4.085938 6.328125 -3.566406 6.328125 -2.984375 Z M 3.4375 -5.3125 C 2.863281 -5.3125 2.378906 -5.128906 1.984375 -4.765625 C 1.597656 -4.398438 1.378906 -3.921875 1.328125 -3.328125 L 5.546875 -3.328125 C 5.492188 -3.921875 5.273438 -4.398438 4.890625 -4.765625 C 4.503906 -5.128906 4.019531 -5.3125 3.4375 -5.3125 Z M 3.4375 -5.3125 "/></g></g></g><g fill="#000000" fill-opacity="1"><g transform="translate(191.000362, 142.899344)"><g><path d="M 2.71875 0.0625 C 2.238281 0.0625 1.773438 -0.00390625 1.328125 -0.140625 C 0.890625 -0.285156 0.546875 -0.46875 0.296875 -0.6875 L 0.65625 -1.3125 C 0.90625 -1.113281 1.21875 -0.953125 1.59375 -0.828125 C 1.96875 -0.703125 2.363281 -0.640625 2.78125 -0.640625 C 3.320312 -0.640625 3.722656 -0.722656 3.984375 -0.890625 C 4.242188 -1.066406 4.375 -1.3125 4.375 -1.625 C 4.375 -1.84375 4.300781 -2.015625 4.15625 -2.140625 C 4.007812 -2.265625 3.828125 -2.359375 3.609375 -2.421875 C 3.390625 -2.484375 3.097656 -2.546875 2.734375 -2.609375 C 2.253906 -2.691406 1.867188 -2.78125 1.578125 -2.875 C 1.285156 -2.976562 1.035156 -3.140625 0.828125 -3.359375 C 0.617188 -3.585938 0.515625 -3.90625 0.515625 -4.3125 C 0.515625 -4.800781 0.71875 -5.203125 1.125 -5.515625 C 1.539062 -5.835938 2.117188 -6 2.859375 -6 C 3.242188 -6 3.628906 -5.945312 4.015625 -5.84375 C 4.398438 -5.75 4.71875 -5.617188 4.96875 -5.453125 L 4.625 -4.796875 C 4.132812 -5.140625 3.546875 -5.3125 2.859375 -5.3125 C 2.347656 -5.3125 1.960938 -5.21875 1.703125 -5.03125 C 1.441406 -4.851562 1.3125 -4.617188 1.3125 -4.328125 C 1.3125 -4.097656 1.382812 -3.914062 1.53125 -3.78125 C 1.675781 -3.644531 1.859375 -3.546875 2.078125 -3.484375 C 2.296875 -3.421875 2.597656 -3.351562 2.984375 -3.28125 C 3.460938 -3.195312 3.84375 -3.109375 4.125 -3.015625 C 4.414062 -2.921875 4.660156 -2.765625 4.859375 -2.546875 C 5.066406 -2.328125 5.171875 -2.023438 5.171875 -1.640625 C 5.171875 -1.117188 4.953125 -0.703125 4.515625 -0.390625 C 4.085938 -0.0859375 3.488281 0.0625 2.71875 0.0625 Z M 2.71875 0.0625 "/></g></g></g><g fill="#000000" fill-opacity="1"><g transform="translate(196.537519, 142.899344)"><g><path d="M 4.265625 -0.359375 C 4.109375 -0.222656 3.914062 -0.117188 3.6875 -0.046875 C 3.46875 0.0234375 3.238281 0.0625 3 0.0625 C 2.4375 0.0625 2.003906 -0.0859375 1.703125 -0.390625 C 1.398438 -0.691406 1.25 -1.117188 1.25 -1.671875 L 1.25 -5.28125 L 0.1875 -5.28125 L 0.1875 -5.953125 L 1.25 -5.953125 L 1.25 -7.265625 L 2.0625 -7.265625 L 2.0625 -5.953125 L 3.875 -5.953125 L 3.875 -5.28125 L 2.0625 -5.28125 L 2.0625 -1.71875 C 2.0625 -1.363281 2.148438 -1.09375 2.328125 -0.90625 C 2.503906 -0.726562 2.757812 -0.640625 3.09375 -0.640625 C 3.257812 -0.640625 3.421875 -0.664062 3.578125 -0.71875 C 3.734375 -0.769531 3.863281 -0.84375 3.96875 -0.9375 Z M 4.265625 -0.359375 "/></g></g></g><g fill="#000000" fill-opacity="1"><g transform="translate(201.134829, 142.899344)"><g><path d="M 1.125 -5.953125 L 1.921875 -5.953125 L 1.921875 0 L 1.125 0 Z M 1.515625 -7.265625 C 1.359375 -7.265625 1.222656 -7.316406 1.109375 -7.421875 C 0.992188 -7.535156 0.9375 -7.675781 0.9375 -7.84375 C 0.9375 -7.988281 0.992188 -8.117188 1.109375 -8.234375 C 1.222656 -8.347656 1.359375 -8.40625 1.515625 -8.40625 C 1.679688 -8.40625 1.820312 -8.347656 1.9375 -8.234375 C 2.050781 -8.128906 2.109375 -8 2.109375 -7.84375 C 2.109375 -7.675781 2.050781 -7.535156 1.9375 -7.421875 C 1.820312 -7.316406 1.679688 -7.265625 1.515625 -7.265625 Z M 1.515625 -7.265625 "/></g></g></g><g fill="#000000" fill-opacity="1"><g transform="translate(204.180836, 142.899344)"><g><path d="M 4.15625 -6 C 4.90625 -6 5.5 -5.78125 5.9375 -5.34375 C 6.382812 -4.914062 6.609375 -4.285156 6.609375 -3.453125 L 6.609375 0 L 5.796875 0 L 5.796875 -3.375 C 5.796875 -4 5.640625 -4.472656 5.328125 -4.796875 C 5.023438 -5.117188 4.585938 -5.28125 4.015625 -5.28125 C 3.367188 -5.28125 2.859375 -5.085938 2.484375 -4.703125 C 2.109375 -4.328125 1.921875 -3.800781 1.921875 -3.125 L 1.921875 0 L 1.125 0 L 1.125 -5.953125 L 1.890625 -5.953125 L 1.890625 -4.859375 C 2.109375 -5.222656 2.410156 -5.503906 2.796875 -5.703125 C 3.191406 -5.898438 3.644531 -6 4.15625 -6 Z M 4.15625 -6 "/></g></g></g><g fill="#000000" fill-opacity="1"><g transform="translate(211.8468, 142.899344)"><g><path d="M 6.640625 -5.953125 L 6.640625 -0.71875 C 6.640625 0.289062 6.390625 1.035156 5.890625 1.515625 C 5.398438 2.003906 4.65625 2.25 3.65625 2.25 C 3.101562 2.25 2.578125 2.164062 2.078125 2 C 1.585938 1.84375 1.191406 1.625 0.890625 1.34375 L 1.296875 0.71875 C 1.578125 0.976562 1.921875 1.179688 2.328125 1.328125 C 2.742188 1.472656 3.179688 1.546875 3.640625 1.546875 C 4.390625 1.546875 4.941406 1.367188 5.296875 1.015625 C 5.648438 0.660156 5.828125 0.113281 5.828125 -0.625 L 5.828125 -1.375 C 5.578125 -1 5.25 -0.710938 4.84375 -0.515625 C 4.445312 -0.328125 4.003906 -0.234375 3.515625 -0.234375 C 2.953125 -0.234375 2.441406 -0.351562 1.984375 -0.59375 C 1.523438 -0.84375 1.164062 -1.1875 0.90625 -1.625 C 0.644531 -2.0625 0.515625 -2.5625 0.515625 -3.125 C 0.515625 -3.6875 0.644531 -4.1875 0.90625 -4.625 C 1.164062 -5.0625 1.519531 -5.398438 1.96875 -5.640625 C 2.425781 -5.878906 2.941406 -6 3.515625 -6 C 4.015625 -6 4.46875 -5.894531 4.875 -5.6875 C 5.289062 -5.488281 5.625 -5.195312 5.875 -4.8125 L 5.875 -5.953125 Z M 3.59375 -0.9375 C 4.019531 -0.9375 4.40625 -1.03125 4.75 -1.21875 C 5.101562 -1.40625 5.375 -1.664062 5.5625 -2 C 5.757812 -2.332031 5.859375 -2.707031 5.859375 -3.125 C 5.859375 -3.550781 5.757812 -3.925781 5.5625 -4.25 C 5.375 -4.582031 5.109375 -4.835938 4.765625 -5.015625 C 4.421875 -5.203125 4.03125 -5.296875 3.59375 -5.296875 C 3.164062 -5.296875 2.78125 -5.207031 2.4375 -5.03125 C 2.09375 -4.851562 1.820312 -4.597656 1.625 -4.265625 C 1.4375 -3.929688 1.34375 -3.550781 1.34375 -3.125 C 1.34375 -2.707031 1.4375 -2.332031 1.625 -2 C 1.820312 -1.664062 2.09375 -1.40625 2.4375 -1.21875 C 2.78125 -1.03125 3.164062 -0.9375 3.59375 -0.9375 Z M 3.59375 -0.9375 "/></g></g></g><g fill="#000000" fill-opacity="1"><g transform="translate(219.614678, 142.899344)"><g/></g></g><g fill="#000000" fill-opacity="1"><g transform="translate(222.581417, 142.899344)"><g><path d="M 6.90625 -0.71875 L 6.90625 0 L 1.296875 0 L 1.296875 -7.9375 L 6.734375 -7.9375 L 6.734375 -7.203125 L 2.125 -7.203125 L 2.125 -4.390625 L 6.234375 -4.390625 L 6.234375 -3.671875 L 2.125 -3.671875 L 2.125 -0.71875 Z M 6.90625 -0.71875 "/></g></g></g><g fill="#000000" fill-opacity="1"><g transform="translate(230.156794, 142.899344)"><g><path d="M 4.921875 0 L 3.03125 -2.5 L 1.125 0 L 0.21875 0 L 2.578125 -3.0625 L 0.328125 -5.953125 L 1.234375 -5.953125 L 3.03125 -3.625 L 4.8125 -5.953125 L 5.703125 -5.953125 L 3.453125 -3.0625 L 5.828125 0 Z M 4.921875 0 "/></g></g></g><g fill="#000000" fill-opacity="1"><g transform="translate(236.203504, 142.899344)"><g><path d="M 3.59375 0.0625 C 3 0.0625 2.46875 -0.0664062 2 -0.328125 C 1.539062 -0.585938 1.175781 -0.945312 0.90625 -1.40625 C 0.644531 -1.875 0.515625 -2.398438 0.515625 -2.984375 C 0.515625 -3.566406 0.644531 -4.085938 0.90625 -4.546875 C 1.175781 -5.003906 1.539062 -5.359375 2 -5.609375 C 2.46875 -5.867188 3 -6 3.59375 -6 C 4.101562 -6 4.5625 -5.898438 4.96875 -5.703125 C 5.375 -5.503906 5.691406 -5.210938 5.921875 -4.828125 L 5.328125 -4.421875 C 5.128906 -4.710938 4.878906 -4.929688 4.578125 -5.078125 C 4.273438 -5.222656 3.945312 -5.296875 3.59375 -5.296875 C 3.164062 -5.296875 2.78125 -5.195312 2.4375 -5 C 2.09375 -4.8125 1.820312 -4.539062 1.625 -4.1875 C 1.4375 -3.832031 1.34375 -3.429688 1.34375 -2.984375 C 1.34375 -2.515625 1.4375 -2.101562 1.625 -1.75 C 1.820312 -1.40625 2.09375 -1.132812 2.4375 -0.9375 C 2.78125 -0.75 3.164062 -0.65625 3.59375 -0.65625 C 3.945312 -0.65625 4.273438 -0.726562 4.578125 -0.875 C 4.878906 -1.019531 5.128906 -1.238281 5.328125 -1.53125 L 5.921875 -1.125 C 5.691406 -0.738281 5.367188 -0.441406 4.953125 -0.234375 C 4.546875 -0.0351562 4.09375 0.0625 3.59375 0.0625 Z M 3.59375 0.0625 "/></g></g></g><g fill="#000000" fill-opacity="1"><g transform="translate(242.578581, 142.899344)"><g><path d="M 6.3125 -2.734375 L 1.328125 -2.734375 C 1.367188 -2.109375 1.601562 -1.601562 2.03125 -1.21875 C 2.46875 -0.84375 3.015625 -0.65625 3.671875 -0.65625 C 4.035156 -0.65625 4.375 -0.71875 4.6875 -0.84375 C 5 -0.976562 5.269531 -1.175781 5.5 -1.4375 L 5.953125 -0.921875 C 5.679688 -0.597656 5.347656 -0.351562 4.953125 -0.1875 C 4.554688 -0.0195312 4.117188 0.0625 3.640625 0.0625 C 3.035156 0.0625 2.492188 -0.0664062 2.015625 -0.328125 C 1.546875 -0.585938 1.175781 -0.945312 0.90625 -1.40625 C 0.644531 -1.875 0.515625 -2.398438 0.515625 -2.984375 C 0.515625 -3.566406 0.640625 -4.085938 0.890625 -4.546875 C 1.148438 -5.003906 1.5 -5.359375 1.9375 -5.609375 C 2.382812 -5.867188 2.882812 -6 3.4375 -6 C 3.988281 -6 4.484375 -5.867188 4.921875 -5.609375 C 5.359375 -5.359375 5.703125 -5.003906 5.953125 -4.546875 C 6.203125 -4.085938 6.328125 -3.566406 6.328125 -2.984375 Z M 3.4375 -5.3125 C 2.863281 -5.3125 2.378906 -5.128906 1.984375 -4.765625 C 1.597656 -4.398438 1.378906 -3.921875 1.328125 -3.328125 L 5.546875 -3.328125 C 5.492188 -3.921875 5.273438 -4.398438 4.890625 -4.765625 C 4.503906 -5.128906 4.019531 -5.3125 3.4375 -5.3125 Z M 3.4375 -5.3125 "/></g></g></g><g fill="#000000" fill-opacity="1"><g transform="translate(249.417942, 142.899344)"><g><path d="M 1.125 -8.40625 L 1.921875 -8.40625 L 1.921875 0 L 1.125 0 Z M 1.125 -8.40625 "/></g></g></g><g fill="#000000" fill-opacity="1"><g transform="translate(252.463961, 142.899344)"><g><path d="M 1.125 -8.40625 L 1.921875 -8.40625 L 1.921875 0 L 1.125 0 Z M 1.125 -8.40625 "/></g></g></g><g fill="#000000" fill-opacity="1"><g transform="translate(255.509979, 142.899344)"><g><path d="M 6.3125 -2.734375 L 1.328125 -2.734375 C 1.367188 -2.109375 1.601562 -1.601562 2.03125 -1.21875 C 2.46875 -0.84375 3.015625 -0.65625 3.671875 -0.65625 C 4.035156 -0.65625 4.375 -0.71875 4.6875 -0.84375 C 5 -0.976562 5.269531 -1.175781 5.5 -1.4375 L 5.953125 -0.921875 C 5.679688 -0.597656 5.347656 -0.351562 4.953125 -0.1875 C 4.554688 -0.0195312 4.117188 0.0625 3.640625 0.0625 C 3.035156 0.0625 2.492188 -0.0664062 2.015625 -0.328125 C 1.546875 -0.585938 1.175781 -0.945312 0.90625 -1.40625 C 0.644531 -1.875 0.515625 -2.398438 0.515625 -2.984375 C 0.515625 -3.566406 0.640625 -4.085938 0.890625 -4.546875 C 1.148438 -5.003906 1.5 -5.359375 1.9375 -5.609375 C 2.382812 -5.867188 2.882812 -6 3.4375 -6 C 3.988281 -6 4.484375 -5.867188 4.921875 -5.609375 C 5.359375 -5.359375 5.703125 -5.003906 5.953125 -4.546875 C 6.203125 -4.085938 6.328125 -3.566406 6.328125 -2.984375 Z M 3.4375 -5.3125 C 2.863281 -5.3125 2.378906 -5.128906 1.984375 -4.765625 C 1.597656 -4.398438 1.378906 -3.921875 1.328125 -3.328125 L 5.546875 -3.328125 C 5.492188 -3.921875 5.273438 -4.398438 4.890625 -4.765625 C 4.503906 -5.128906 4.019531 -5.3125 3.4375 -5.3125 Z M 3.4375 -5.3125 "/></g></g></g><g fill="#000000" fill-opacity="1"><g transform="translate(262.34934, 142.899344)"><g><path d="M 4.15625 -6 C 4.90625 -6 5.5 -5.78125 5.9375 -5.34375 C 6.382812 -4.914062 6.609375 -4.285156 6.609375 -3.453125 L 6.609375 0 L 5.796875 0 L 5.796875 -3.375 C 5.796875 -4 5.640625 -4.472656 5.328125 -4.796875 C 5.023438 -5.117188 4.585938 -5.28125 4.015625 -5.28125 C 3.367188 -5.28125 2.859375 -5.085938 2.484375 -4.703125 C 2.109375 -4.328125 1.921875 -3.800781 1.921875 -3.125 L 1.921875 0 L 1.125 0 L 1.125 -5.953125 L 1.890625 -5.953125 L 1.890625 -4.859375 C 2.109375 -5.222656 2.410156 -5.503906 2.796875 -5.703125 C 3.191406 -5.898438 3.644531 -6 4.15625 -6 Z M 4.15625 -6 "/></g></g></g><g fill="#000000" fill-opacity="1"><g transform="translate(270.015292, 142.899344)"><g><path d="M 3.59375 0.0625 C 3 0.0625 2.46875 -0.0664062 2 -0.328125 C 1.539062 -0.585938 1.175781 -0.945312 0.90625 -1.40625 C 0.644531 -1.875 0.515625 -2.398438 0.515625 -2.984375 C 0.515625 -3.566406 0.644531 -4.085938 0.90625 -4.546875 C 1.175781 -5.003906 1.539062 -5.359375 2 -5.609375 C 2.46875 -5.867188 3 -6 3.59375 -6 C 4.101562 -6 4.5625 -5.898438 4.96875 -5.703125 C 5.375 -5.503906 5.691406 -5.210938 5.921875 -4.828125 L 5.328125 -4.421875 C 5.128906 -4.710938 4.878906 -4.929688 4.578125 -5.078125 C 4.273438 -5.222656 3.945312 -5.296875 3.59375 -5.296875 C 3.164062 -5.296875 2.78125 -5.195312 2.4375 -5 C 2.09375 -4.8125 1.820312 -4.539062 1.625 -4.1875 C 1.4375 -3.832031 1.34375 -3.429688 1.34375 -2.984375 C 1.34375 -2.515625 1.4375 -2.101562 1.625 -1.75 C 1.820312 -1.40625 2.09375 -1.132812 2.4375 -0.9375 C 2.78125 -0.75 3.164062 -0.65625 3.59375 -0.65625 C 3.945312 -0.65625 4.273438 -0.726562 4.578125 -0.875 C 4.878906 -1.019531 5.128906 -1.238281 5.328125 -1.53125 L 5.921875 -1.125 C 5.691406 -0.738281 5.367188 -0.441406 4.953125 -0.234375 C 4.546875 -0.0351562 4.09375 0.0625 3.59375 0.0625 Z M 3.59375 0.0625 "/></g></g></g><g fill="#000000" fill-opacity="1"><g transform="translate(276.390381, 142.899344)"><g><path d="M 6.3125 -2.734375 L 1.328125 -2.734375 C 1.367188 -2.109375 1.601562 -1.601562 2.03125 -1.21875 C 2.46875 -0.84375 3.015625 -0.65625 3.671875 -0.65625 C 4.035156 -0.65625 4.375 -0.71875 4.6875 -0.84375 C 5 -0.976562 5.269531 -1.175781 5.5 -1.4375 L 5.953125 -0.921875 C 5.679688 -0.597656 5.347656 -0.351562 4.953125 -0.1875 C 4.554688 -0.0195312 4.117188 0.0625 3.640625 0.0625 C 3.035156 0.0625 2.492188 -0.0664062 2.015625 -0.328125 C 1.546875 -0.585938 1.175781 -0.945312 0.90625 -1.40625 C 0.644531 -1.875 0.515625 -2.398438 0.515625 -2.984375 C 0.515625 -3.566406 0.640625 -4.085938 0.890625 -4.546875 C 1.148438 -5.003906 1.5 -5.359375 1.9375 -5.609375 C 2.382812 -5.867188 2.882812 -6 3.4375 -6 C 3.988281 -6 4.484375 -5.867188 4.921875 -5.609375 C 5.359375 -5.359375 5.703125 -5.003906 5.953125 -4.546875 C 6.203125 -4.085938 6.328125 -3.566406 6.328125 -2.984375 Z M 3.4375 -5.3125 C 2.863281 -5.3125 2.378906 -5.128906 1.984375 -4.765625 C 1.597656 -4.398438 1.378906 -3.921875 1.328125 -3.328125 L 5.546875 -3.328125 C 5.492188 -3.921875 5.273438 -4.398438 4.890625 -4.765625 C 4.503906 -5.128906 4.019531 -5.3125 3.4375 -5.3125 Z M 3.4375 -5.3125 "/></g></g></g><g fill="#000000" fill-opacity="1"><g transform="translate(171.223456, 204.211407)"><g><path d="M 3.703125 -7.265625 C 4.203125 -7.265625 4.628906 -7.175781 4.984375 -7 C 5.347656 -6.820312 5.625 -6.566406 5.8125 -6.234375 C 6 -5.898438 6.09375 -5.507812 6.09375 -5.0625 C 6.09375 -4.601562 6 -4.207031 5.8125 -3.875 C 5.625 -3.550781 5.347656 -3.296875 4.984375 -3.109375 C 4.628906 -2.929688 4.203125 -2.84375 3.703125 -2.84375 L 1.953125 -2.84375 L 1.953125 0 L 1.09375 0 L 1.09375 -7.265625 Z M 3.671875 -3.578125 C 4.679688 -3.578125 5.1875 -4.070312 5.1875 -5.0625 C 5.1875 -6.050781 4.679688 -6.546875 3.671875 -6.546875 L 1.953125 -6.546875 L 1.953125 -3.578125 Z M 3.671875 -3.578125 "/></g></g></g><g fill="#000000" fill-opacity="1"><g transform="translate(177.851748, 204.211407)"><g><path d="M 0.953125 0 L 0.953125 -5.484375 L 1.71875 -5.484375 L 1.71875 -4.625 L 1.828125 -4.59375 C 2.085938 -5.21875 2.566406 -5.53125 3.265625 -5.53125 C 3.640625 -5.53125 3.921875 -5.460938 4.109375 -5.328125 L 3.90625 -4.640625 L 3.8125 -4.625 C 3.601562 -4.726562 3.375 -4.78125 3.125 -4.78125 C 2.6875 -4.78125 2.347656 -4.613281 2.109375 -4.28125 C 1.878906 -3.957031 1.765625 -3.425781 1.765625 -2.6875 L 1.765625 0 Z M 0.953125 0 "/></g></g></g><g fill="#000000" fill-opacity="1"><g transform="translate(182.088282, 204.211407)"><g><path d="M 1.359375 -6.546875 C 1.191406 -6.546875 1.050781 -6.597656 0.9375 -6.703125 C 0.832031 -6.816406 0.78125 -6.957031 0.78125 -7.125 C 0.78125 -7.28125 0.832031 -7.410156 0.9375 -7.515625 C 1.050781 -7.628906 1.191406 -7.6875 1.359375 -7.6875 C 1.535156 -7.6875 1.675781 -7.628906 1.78125 -7.515625 C 1.882812 -7.410156 1.9375 -7.28125 1.9375 -7.125 C 1.9375 -6.957031 1.882812 -6.816406 1.78125 -6.703125 C 1.675781 -6.597656 1.535156 -6.546875 1.359375 -6.546875 Z M 0.953125 0 L 0.953125 -5.484375 L 1.765625 -5.484375 L 1.765625 0 Z M 0.953125 0 "/></g></g></g><g fill="#000000" fill-opacity="1"><g transform="translate(184.808222, 204.211407)"><g><path d="M 3.46875 0 L 2.359375 0 L 0.265625 -5.484375 L 1.140625 -5.484375 L 2.875 -0.921875 L 2.984375 -0.921875 L 4.703125 -5.484375 L 5.546875 -5.484375 Z M 3.46875 0 "/></g></g></g><g fill="#000000" fill-opacity="1"><g transform="translate(190.621031, 204.211407)"><g><path d="M 2.265625 0.109375 C 1.722656 0.109375 1.300781 -0.03125 1 -0.3125 C 0.695312 -0.59375 0.546875 -1 0.546875 -1.53125 C 0.546875 -1.851562 0.609375 -2.125 0.734375 -2.34375 C 0.867188 -2.570312 1.078125 -2.753906 1.359375 -2.890625 C 1.648438 -3.035156 2.019531 -3.144531 2.46875 -3.21875 C 2.863281 -3.289062 3.164062 -3.367188 3.375 -3.453125 C 3.582031 -3.535156 3.722656 -3.625 3.796875 -3.71875 C 3.867188 -3.820312 3.90625 -3.953125 3.90625 -4.109375 C 3.90625 -4.359375 3.816406 -4.550781 3.640625 -4.6875 C 3.472656 -4.820312 3.203125 -4.890625 2.828125 -4.890625 C 2.472656 -4.890625 2.164062 -4.816406 1.90625 -4.671875 C 1.65625 -4.535156 1.425781 -4.332031 1.21875 -4.0625 L 1.109375 -4.0625 L 0.71875 -4.625 C 0.945312 -4.914062 1.238281 -5.148438 1.59375 -5.328125 C 1.957031 -5.503906 2.367188 -5.59375 2.828125 -5.59375 C 3.472656 -5.59375 3.945312 -5.445312 4.25 -5.15625 C 4.5625 -4.875 4.71875 -4.484375 4.71875 -3.984375 L 4.71875 -1.078125 C 4.71875 -0.773438 4.847656 -0.625 5.109375 -0.625 C 5.191406 -0.625 5.273438 -0.640625 5.359375 -0.671875 L 5.421875 -0.640625 L 5.515625 -0.078125 C 5.453125 -0.046875 5.375 -0.0195312 5.28125 0 C 5.1875 0.03125 5.085938 0.046875 4.984375 0.046875 C 4.679688 0.046875 4.453125 -0.0195312 4.296875 -0.15625 C 4.140625 -0.289062 4.039062 -0.488281 4 -0.75 L 3.890625 -0.75 C 3.734375 -0.46875 3.519531 -0.253906 3.25 -0.109375 C 2.988281 0.0351562 2.660156 0.109375 2.265625 0.109375 Z M 2.4375 -0.546875 C 2.75 -0.546875 3.015625 -0.613281 3.234375 -0.75 C 3.460938 -0.894531 3.632812 -1.09375 3.75 -1.34375 C 3.875 -1.601562 3.9375 -1.898438 3.9375 -2.234375 L 3.9375 -2.9375 L 3.828125 -2.953125 C 3.710938 -2.867188 3.566406 -2.796875 3.390625 -2.734375 C 3.210938 -2.671875 2.96875 -2.617188 2.65625 -2.578125 C 2.332031 -2.535156 2.078125 -2.46875 1.890625 -2.375 C 1.703125 -2.289062 1.566406 -2.175781 1.484375 -2.03125 C 1.410156 -1.894531 1.375 -1.726562 1.375 -1.53125 C 1.375 -1.207031 1.46875 -0.960938 1.65625 -0.796875 C 1.84375 -0.628906 2.101562 -0.546875 2.4375 -0.546875 Z M 2.4375 -0.546875 "/></g></g></g><g fill="#000000" fill-opacity="1"><g transform="translate(196.29461, 204.211407)"><g><path d="M 3.703125 -0.875 L 3.96875 -0.28125 C 3.84375 -0.15625 3.671875 -0.0625 3.453125 0 C 3.242188 0.0703125 3.019531 0.109375 2.78125 0.109375 C 1.726562 0.109375 1.203125 -0.421875 1.203125 -1.484375 L 1.203125 -4.828125 L 0.25 -4.828125 L 0.25 -5.484375 L 1.203125 -5.484375 L 1.203125 -6.65625 L 2.015625 -6.78125 L 2.015625 -5.484375 L 3.78125 -5.484375 L 3.78125 -4.828125 L 2.015625 -4.828125 L 2.015625 -1.5625 C 2.015625 -0.9375 2.285156 -0.625 2.828125 -0.625 C 3.128906 -0.625 3.390625 -0.707031 3.609375 -0.875 Z M 3.703125 -0.875 "/></g></g></g><g fill="#000000" fill-opacity="1"><g transform="translate(200.471475, 204.211407)"><g><path d="M 5.234375 -2.5625 L 1.453125 -2.5625 C 1.484375 -1.894531 1.644531 -1.40625 1.9375 -1.09375 C 2.226562 -0.78125 2.632812 -0.625 3.15625 -0.625 C 3.550781 -0.625 3.867188 -0.691406 4.109375 -0.828125 C 4.347656 -0.972656 4.535156 -1.191406 4.671875 -1.484375 L 4.765625 -1.484375 L 5.296875 -1.171875 C 5.140625 -0.773438 4.882812 -0.460938 4.53125 -0.234375 C 4.1875 -0.00390625 3.726562 0.109375 3.15625 0.109375 C 2.625 0.109375 2.164062 0.00390625 1.78125 -0.203125 C 1.40625 -0.410156 1.113281 -0.726562 0.90625 -1.15625 C 0.707031 -1.582031 0.609375 -2.109375 0.609375 -2.734375 C 0.609375 -3.359375 0.710938 -3.882812 0.921875 -4.3125 C 1.140625 -4.738281 1.4375 -5.054688 1.8125 -5.265625 C 2.1875 -5.484375 2.617188 -5.59375 3.109375 -5.59375 C 3.804688 -5.59375 4.351562 -5.394531 4.75 -5 C 5.144531 -4.601562 5.347656 -4.015625 5.359375 -3.234375 C 5.359375 -2.929688 5.347656 -2.722656 5.328125 -2.609375 Z M 4.546875 -3.234375 C 4.535156 -3.816406 4.40625 -4.238281 4.15625 -4.5 C 3.914062 -4.769531 3.566406 -4.90625 3.109375 -4.90625 C 2.628906 -4.90625 2.25 -4.769531 1.96875 -4.5 C 1.695312 -4.238281 1.535156 -3.816406 1.484375 -3.234375 Z M 4.546875 -3.234375 "/></g></g></g><g fill="#000000" fill-opacity="1"><g transform="translate(206.319085, 204.211407)"><g/></g></g><g fill="#000000" fill-opacity="1"><g transform="translate(208.815258, 204.211407)"><g><path d="M 1.953125 -7.265625 L 1.953125 -0.703125 L 5.453125 -0.703125 L 5.453125 0 L 1.09375 0 L 1.09375 -7.265625 Z M 1.953125 -7.265625 "/></g></g></g><g fill="#000000" fill-opacity="1"><g transform="translate(214.578342, 204.211407)"><g><path d="M 1.359375 -6.546875 C 1.191406 -6.546875 1.050781 -6.597656 0.9375 -6.703125 C 0.832031 -6.816406 0.78125 -6.957031 0.78125 -7.125 C 0.78125 -7.28125 0.832031 -7.410156 0.9375 -7.515625 C 1.050781 -7.628906 1.191406 -7.6875 1.359375 -7.6875 C 1.535156 -7.6875 1.675781 -7.628906 1.78125 -7.515625 C 1.882812 -7.410156 1.9375 -7.28125 1.9375 -7.125 C 1.9375 -6.957031 1.882812 -6.816406 1.78125 -6.703125 C 1.675781 -6.597656 1.535156 -6.546875 1.359375 -6.546875 Z M 0.953125 0 L 0.953125 -5.484375 L 1.765625 -5.484375 L 1.765625 0 Z M 0.953125 0 "/></g></g></g><g fill="#000000" fill-opacity="1"><g transform="translate(217.298282, 204.211407)"><g><path d="M 0.953125 0 L 0.953125 -5.484375 L 1.71875 -5.484375 L 1.71875 -4.671875 L 1.828125 -4.65625 C 2.015625 -4.96875 2.238281 -5.203125 2.5 -5.359375 C 2.769531 -5.515625 3.085938 -5.59375 3.453125 -5.59375 C 3.878906 -5.59375 4.207031 -5.507812 4.4375 -5.34375 C 4.664062 -5.1875 4.847656 -4.929688 4.984375 -4.578125 L 5.078125 -4.578125 C 5.273438 -4.910156 5.507812 -5.160156 5.78125 -5.328125 C 6.0625 -5.503906 6.40625 -5.59375 6.8125 -5.59375 C 7.375 -5.59375 7.789062 -5.4375 8.0625 -5.125 C 8.34375 -4.820312 8.484375 -4.359375 8.484375 -3.734375 L 8.484375 0 L 7.671875 0 L 7.671875 -3.71875 C 7.671875 -4.113281 7.585938 -4.40625 7.421875 -4.59375 C 7.253906 -4.789062 6.984375 -4.890625 6.609375 -4.890625 C 6.171875 -4.890625 5.8125 -4.726562 5.53125 -4.40625 C 5.257812 -4.09375 5.125 -3.566406 5.125 -2.828125 L 5.125 0 L 4.3125 0 L 4.3125 -3.71875 C 4.3125 -4.113281 4.226562 -4.40625 4.0625 -4.59375 C 3.894531 -4.789062 3.625 -4.890625 3.25 -4.890625 C 2.8125 -4.890625 2.453125 -4.734375 2.171875 -4.421875 C 1.898438 -4.109375 1.765625 -3.609375 1.765625 -2.921875 L 1.765625 0 Z M 0.953125 0 "/></g></g></g><g fill="#000000" fill-opacity="1"><g transform="translate(226.646503, 204.211407)"><g><path d="M 1.359375 -6.546875 C 1.191406 -6.546875 1.050781 -6.597656 0.9375 -6.703125 C 0.832031 -6.816406 0.78125 -6.957031 0.78125 -7.125 C 0.78125 -7.28125 0.832031 -7.410156 0.9375 -7.515625 C 1.050781 -7.628906 1.191406 -7.6875 1.359375 -7.6875 C 1.535156 -7.6875 1.675781 -7.628906 1.78125 -7.515625 C 1.882812 -7.410156 1.9375 -7.28125 1.9375 -7.125 C 1.9375 -6.957031 1.882812 -6.816406 1.78125 -6.703125 C 1.675781 -6.597656 1.535156 -6.546875 1.359375 -6.546875 Z M 0.953125 0 L 0.953125 -5.484375 L 1.765625 -5.484375 L 1.765625 0 Z M 0.953125 0 "/></g></g></g><g fill="#000000" fill-opacity="1"><g transform="translate(229.366443, 204.211407)"><g><path d="M 3.703125 -0.875 L 3.96875 -0.28125 C 3.84375 -0.15625 3.671875 -0.0625 3.453125 0 C 3.242188 0.0703125 3.019531 0.109375 2.78125 0.109375 C 1.726562 0.109375 1.203125 -0.421875 1.203125 -1.484375 L 1.203125 -4.828125 L 0.25 -4.828125 L 0.25 -5.484375 L 1.203125 -5.484375 L 1.203125 -6.65625 L 2.015625 -6.78125 L 2.015625 -5.484375 L 3.78125 -5.484375 L 3.78125 -4.828125 L 2.015625 -4.828125 L 2.015625 -1.5625 C 2.015625 -0.9375 2.285156 -0.625 2.828125 -0.625 C 3.128906 -0.625 3.390625 -0.707031 3.609375 -0.875 Z M 3.703125 -0.875 "/></g></g></g><g fill="#000000" fill-opacity="1"><g transform="translate(233.543307, 204.211407)"><g><path d="M 5.234375 -2.5625 L 1.453125 -2.5625 C 1.484375 -1.894531 1.644531 -1.40625 1.9375 -1.09375 C 2.226562 -0.78125 2.632812 -0.625 3.15625 -0.625 C 3.550781 -0.625 3.867188 -0.691406 4.109375 -0.828125 C 4.347656 -0.972656 4.535156 -1.191406 4.671875 -1.484375 L 4.765625 -1.484375 L 5.296875 -1.171875 C 5.140625 -0.773438 4.882812 -0.460938 4.53125 -0.234375 C 4.1875 -0.00390625 3.726562 0.109375 3.15625 0.109375 C 2.625 0.109375 2.164062 0.00390625 1.78125 -0.203125 C 1.40625 -0.410156 1.113281 -0.726562 0.90625 -1.15625 C 0.707031 -1.582031 0.609375 -2.109375 0.609375 -2.734375 C 0.609375 -3.359375 0.710938 -3.882812 0.921875 -4.3125 C 1.140625 -4.738281 1.4375 -5.054688 1.8125 -5.265625 C 2.1875 -5.484375 2.617188 -5.59375 3.109375 -5.59375 C 3.804688 -5.59375 4.351562 -5.394531 4.75 -5 C 5.144531 -4.601562 5.347656 -4.015625 5.359375 -3.234375 C 5.359375 -2.929688 5.347656 -2.722656 5.328125 -2.609375 Z M 4.546875 -3.234375 C 4.535156 -3.816406 4.40625 -4.238281 4.15625 -4.5 C 3.914062 -4.769531 3.566406 -4.90625 3.109375 -4.90625 C 2.628906 -4.90625 2.25 -4.769531 1.96875 -4.5 C 1.695312 -4.238281 1.535156 -3.816406 1.484375 -3.234375 Z M 4.546875 -3.234375 "/></g></g></g><g fill="#000000" fill-opacity="1"><g transform="translate(239.390917, 204.211407)"><g><path d="M 2.84375 0.109375 C 2.40625 0.109375 2.015625 0.00390625 1.671875 -0.203125 C 1.335938 -0.421875 1.078125 -0.738281 0.890625 -1.15625 C 0.703125 -1.582031 0.609375 -2.109375 0.609375 -2.734375 C 0.609375 -3.367188 0.707031 -3.894531 0.90625 -4.3125 C 1.101562 -4.738281 1.375 -5.054688 1.71875 -5.265625 C 2.070312 -5.484375 2.476562 -5.59375 2.9375 -5.59375 C 3.300781 -5.59375 3.628906 -5.519531 3.921875 -5.375 C 4.210938 -5.238281 4.460938 -5.015625 4.671875 -4.703125 L 4.78125 -4.71875 L 4.78125 -7.6875 L 5.59375 -7.6875 L 5.59375 0 L 4.78125 0 L 4.78125 -0.796875 L 4.671875 -0.828125 C 4.492188 -0.546875 4.25 -0.316406 3.9375 -0.140625 C 3.632812 0.0234375 3.269531 0.109375 2.84375 0.109375 Z M 3.09375 -0.625 C 3.601562 -0.625 4.007812 -0.796875 4.3125 -1.140625 C 4.625 -1.492188 4.78125 -2.023438 4.78125 -2.734375 C 4.78125 -3.453125 4.625 -3.984375 4.3125 -4.328125 C 4.007812 -4.679688 3.601562 -4.859375 3.09375 -4.859375 C 2.570312 -4.859375 2.164062 -4.6875 1.875 -4.34375 C 1.59375 -4.007812 1.453125 -3.472656 1.453125 -2.734375 C 1.453125 -1.328125 2 -0.625 3.09375 -0.625 Z M 3.09375 -0.625 "/></g></g></g><g fill="#000000" fill-opacity="1"><g transform="translate(66.091309, 357.693587)"><g><path d="M 3.484375 0.0625 C 2.890625 0.0625 2.320312 -0.03125 1.78125 -0.21875 C 1.238281 -0.40625 0.820312 -0.65625 0.53125 -0.96875 L 0.859375 -1.609375 C 1.148438 -1.316406 1.53125 -1.082031 2 -0.90625 C 2.476562 -0.726562 2.972656 -0.640625 3.484375 -0.640625 C 4.191406 -0.640625 4.722656 -0.769531 5.078125 -1.03125 C 5.429688 -1.289062 5.609375 -1.628906 5.609375 -2.046875 C 5.609375 -2.367188 5.507812 -2.625 5.3125 -2.8125 C 5.125 -3 4.890625 -3.144531 4.609375 -3.25 C 4.328125 -3.351562 3.9375 -3.460938 3.4375 -3.578125 C 2.84375 -3.734375 2.367188 -3.878906 2.015625 -4.015625 C 1.660156 -4.148438 1.351562 -4.363281 1.09375 -4.65625 C 0.84375 -4.945312 0.71875 -5.335938 0.71875 -5.828125 C 0.71875 -6.222656 0.820312 -6.582031 1.03125 -6.90625 C 1.25 -7.238281 1.578125 -7.503906 2.015625 -7.703125 C 2.453125 -7.898438 2.992188 -8 3.640625 -8 C 4.097656 -8 4.539062 -7.9375 4.96875 -7.8125 C 5.40625 -7.6875 5.785156 -7.515625 6.109375 -7.296875 L 5.828125 -6.625 C 5.492188 -6.84375 5.132812 -7.003906 4.75 -7.109375 C 4.375 -7.222656 4.003906 -7.28125 3.640625 -7.28125 C 2.953125 -7.28125 2.429688 -7.144531 2.078125 -6.875 C 1.722656 -6.613281 1.546875 -6.269531 1.546875 -5.84375 C 1.546875 -5.53125 1.640625 -5.273438 1.828125 -5.078125 C 2.023438 -4.890625 2.269531 -4.742188 2.5625 -4.640625 C 2.851562 -4.535156 3.242188 -4.425781 3.734375 -4.3125 C 4.316406 -4.164062 4.785156 -4.019531 5.140625 -3.875 C 5.503906 -3.738281 5.8125 -3.53125 6.0625 -3.25 C 6.3125 -2.96875 6.4375 -2.582031 6.4375 -2.09375 C 6.4375 -1.695312 6.328125 -1.332031 6.109375 -1 C 5.890625 -0.675781 5.554688 -0.414062 5.109375 -0.21875 C 4.671875 -0.03125 4.128906 0.0625 3.484375 0.0625 Z M 3.484375 0.0625 "/></g></g></g><g fill="#000000" fill-opacity="1"><g transform="translate(73.05522, 357.693587)"><g><path d="M 6.3125 -2.734375 L 1.328125 -2.734375 C 1.367188 -2.109375 1.601562 -1.601562 2.03125 -1.21875 C 2.46875 -0.84375 3.015625 -0.65625 3.671875 -0.65625 C 4.035156 -0.65625 4.375 -0.71875 4.6875 -0.84375 C 5 -0.976562 5.269531 -1.175781 5.5 -1.4375 L 5.953125 -0.921875 C 5.679688 -0.597656 5.347656 -0.351562 4.953125 -0.1875 C 4.554688 -0.0195312 4.117188 0.0625 3.640625 0.0625 C 3.035156 0.0625 2.492188 -0.0664062 2.015625 -0.328125 C 1.546875 -0.585938 1.175781 -0.945312 0.90625 -1.40625 C 0.644531 -1.875 0.515625 -2.398438 0.515625 -2.984375 C 0.515625 -3.566406 0.640625 -4.085938 0.890625 -4.546875 C 1.148438 -5.003906 1.5 -5.359375 1.9375 -5.609375 C 2.382812 -5.867188 2.882812 -6 3.4375 -6 C 3.988281 -6 4.484375 -5.867188 4.921875 -5.609375 C 5.359375 -5.359375 5.703125 -5.003906 5.953125 -4.546875 C 6.203125 -4.085938 6.328125 -3.566406 6.328125 -2.984375 Z M 3.4375 -5.3125 C 2.863281 -5.3125 2.378906 -5.128906 1.984375 -4.765625 C 1.597656 -4.398438 1.378906 -3.921875 1.328125 -3.328125 L 5.546875 -3.328125 C 5.492188 -3.921875 5.273438 -4.398438 4.890625 -4.765625 C 4.503906 -5.128906 4.019531 -5.3125 3.4375 -5.3125 Z M 3.4375 -5.3125 "/></g></g></g><g fill="#000000" fill-opacity="1"><g transform="translate(79.894568, 357.693587)"><g><path d="M 6.3125 -2.734375 L 1.328125 -2.734375 C 1.367188 -2.109375 1.601562 -1.601562 2.03125 -1.21875 C 2.46875 -0.84375 3.015625 -0.65625 3.671875 -0.65625 C 4.035156 -0.65625 4.375 -0.71875 4.6875 -0.84375 C 5 -0.976562 5.269531 -1.175781 5.5 -1.4375 L 5.953125 -0.921875 C 5.679688 -0.597656 5.347656 -0.351562 4.953125 -0.1875 C 4.554688 -0.0195312 4.117188 0.0625 3.640625 0.0625 C 3.035156 0.0625 2.492188 -0.0664062 2.015625 -0.328125 C 1.546875 -0.585938 1.175781 -0.945312 0.90625 -1.40625 C 0.644531 -1.875 0.515625 -2.398438 0.515625 -2.984375 C 0.515625 -3.566406 0.640625 -4.085938 0.890625 -4.546875 C 1.148438 -5.003906 1.5 -5.359375 1.9375 -5.609375 C 2.382812 -5.867188 2.882812 -6 3.4375 -6 C 3.988281 -6 4.484375 -5.867188 4.921875 -5.609375 C 5.359375 -5.359375 5.703125 -5.003906 5.953125 -4.546875 C 6.203125 -4.085938 6.328125 -3.566406 6.328125 -2.984375 Z M 3.4375 -5.3125 C 2.863281 -5.3125 2.378906 -5.128906 1.984375 -4.765625 C 1.597656 -4.398438 1.378906 -3.921875 1.328125 -3.328125 L 5.546875 -3.328125 C 5.492188 -3.921875 5.273438 -4.398438 4.890625 -4.765625 C 4.503906 -5.128906 4.019531 -5.3125 3.4375 -5.3125 Z M 3.4375 -5.3125 "/></g></g></g><g fill="#000000" fill-opacity="1"><g transform="translate(86.733917, 357.693587)"><g><path d="M 6.5625 -8.40625 L 6.5625 0 L 5.78125 0 L 5.78125 -1.171875 C 5.539062 -0.773438 5.222656 -0.46875 4.828125 -0.25 C 4.429688 -0.0390625 3.984375 0.0625 3.484375 0.0625 C 2.929688 0.0625 2.425781 -0.0664062 1.96875 -0.328125 C 1.519531 -0.585938 1.164062 -0.945312 0.90625 -1.40625 C 0.644531 -1.863281 0.515625 -2.390625 0.515625 -2.984375 C 0.515625 -3.566406 0.644531 -4.085938 0.90625 -4.546875 C 1.164062 -5.015625 1.519531 -5.375 1.96875 -5.625 C 2.425781 -5.875 2.929688 -6 3.484375 -6 C 3.972656 -6 4.410156 -5.898438 4.796875 -5.703125 C 5.179688 -5.503906 5.5 -5.210938 5.75 -4.828125 L 5.75 -8.40625 Z M 3.5625 -0.65625 C 3.976562 -0.65625 4.351562 -0.75 4.6875 -0.9375 C 5.019531 -1.132812 5.28125 -1.410156 5.46875 -1.765625 C 5.664062 -2.117188 5.765625 -2.523438 5.765625 -2.984375 C 5.765625 -3.429688 5.664062 -3.832031 5.46875 -4.1875 C 5.28125 -4.539062 5.019531 -4.8125 4.6875 -5 C 4.351562 -5.195312 3.976562 -5.296875 3.5625 -5.296875 C 3.132812 -5.296875 2.753906 -5.195312 2.421875 -5 C 2.085938 -4.8125 1.820312 -4.539062 1.625 -4.1875 C 1.4375 -3.832031 1.34375 -3.429688 1.34375 -2.984375 C 1.34375 -2.523438 1.4375 -2.117188 1.625 -1.765625 C 1.820312 -1.410156 2.085938 -1.132812 2.421875 -0.9375 C 2.753906 -0.75 3.132812 -0.65625 3.5625 -0.65625 Z M 3.5625 -0.65625 "/></g></g></g><g fill="#000000" fill-opacity="1"><g transform="translate(94.411209, 357.693587)"><g><path d="M 2.71875 0.0625 C 2.238281 0.0625 1.773438 -0.00390625 1.328125 -0.140625 C 0.890625 -0.285156 0.546875 -0.46875 0.296875 -0.6875 L 0.65625 -1.3125 C 0.90625 -1.113281 1.21875 -0.953125 1.59375 -0.828125 C 1.96875 -0.703125 2.363281 -0.640625 2.78125 -0.640625 C 3.320312 -0.640625 3.722656 -0.722656 3.984375 -0.890625 C 4.242188 -1.066406 4.375 -1.3125 4.375 -1.625 C 4.375 -1.84375 4.300781 -2.015625 4.15625 -2.140625 C 4.007812 -2.265625 3.828125 -2.359375 3.609375 -2.421875 C 3.390625 -2.484375 3.097656 -2.546875 2.734375 -2.609375 C 2.253906 -2.691406 1.867188 -2.78125 1.578125 -2.875 C 1.285156 -2.976562 1.035156 -3.140625 0.828125 -3.359375 C 0.617188 -3.585938 0.515625 -3.90625 0.515625 -4.3125 C 0.515625 -4.800781 0.71875 -5.203125 1.125 -5.515625 C 1.539062 -5.835938 2.117188 -6 2.859375 -6 C 3.242188 -6 3.628906 -5.945312 4.015625 -5.84375 C 4.398438 -5.75 4.71875 -5.617188 4.96875 -5.453125 L 4.625 -4.796875 C 4.132812 -5.140625 3.546875 -5.3125 2.859375 -5.3125 C 2.347656 -5.3125 1.960938 -5.21875 1.703125 -5.03125 C 1.441406 -4.851562 1.3125 -4.617188 1.3125 -4.328125 C 1.3125 -4.097656 1.382812 -3.914062 1.53125 -3.78125 C 1.675781 -3.644531 1.859375 -3.546875 2.078125 -3.484375 C 2.296875 -3.421875 2.597656 -3.351562 2.984375 -3.28125 C 3.460938 -3.195312 3.84375 -3.109375 4.125 -3.015625 C 4.414062 -2.921875 4.660156 -2.765625 4.859375 -2.546875 C 5.066406 -2.328125 5.171875 -2.023438 5.171875 -1.640625 C 5.171875 -1.117188 4.953125 -0.703125 4.515625 -0.390625 C 4.085938 -0.0859375 3.488281 0.0625 2.71875 0.0625 Z M 2.71875 0.0625 "/></g></g></g><g fill="#000000" fill-opacity="1"><g transform="translate(99.948367, 357.693587)"><g/></g></g><g fill="#000000" fill-opacity="1"><g transform="translate(102.915105, 357.693587)"><g><path d="M 3.5625 0.0625 C 2.988281 0.0625 2.46875 -0.0664062 2 -0.328125 C 1.539062 -0.585938 1.175781 -0.945312 0.90625 -1.40625 C 0.644531 -1.875 0.515625 -2.398438 0.515625 -2.984375 C 0.515625 -3.566406 0.644531 -4.085938 0.90625 -4.546875 C 1.175781 -5.003906 1.539062 -5.359375 2 -5.609375 C 2.46875 -5.867188 2.988281 -6 3.5625 -6 C 4.132812 -6 4.648438 -5.867188 5.109375 -5.609375 C 5.566406 -5.359375 5.925781 -5.003906 6.1875 -4.546875 C 6.445312 -4.085938 6.578125 -3.566406 6.578125 -2.984375 C 6.578125 -2.398438 6.445312 -1.875 6.1875 -1.40625 C 5.925781 -0.945312 5.566406 -0.585938 5.109375 -0.328125 C 4.648438 -0.0664062 4.132812 0.0625 3.5625 0.0625 Z M 3.5625 -0.65625 C 3.976562 -0.65625 4.351562 -0.75 4.6875 -0.9375 C 5.03125 -1.132812 5.296875 -1.410156 5.484375 -1.765625 C 5.671875 -2.117188 5.765625 -2.523438 5.765625 -2.984375 C 5.765625 -3.429688 5.671875 -3.832031 5.484375 -4.1875 C 5.296875 -4.539062 5.03125 -4.8125 4.6875 -5 C 4.351562 -5.195312 3.976562 -5.296875 3.5625 -5.296875 C 3.132812 -5.296875 2.753906 -5.195312 2.421875 -5 C 2.085938 -4.8125 1.820312 -4.539062 1.625 -4.1875 C 1.4375 -3.832031 1.34375 -3.429688 1.34375 -2.984375 C 1.34375 -2.523438 1.4375 -2.117188 1.625 -1.765625 C 1.820312 -1.410156 2.085938 -1.132812 2.421875 -0.9375 C 2.753906 -0.75 3.132812 -0.65625 3.5625 -0.65625 Z M 3.5625 -0.65625 "/></g></g></g><g fill="#000000" fill-opacity="1"><g transform="translate(110.014894, 357.693587)"><g><path d="M 3.09375 -7.78125 C 2.75 -7.78125 2.488281 -7.6875 2.3125 -7.5 C 2.132812 -7.3125 2.046875 -7.03125 2.046875 -6.65625 L 2.046875 -5.953125 L 3.875 -5.953125 L 3.875 -5.28125 L 2.0625 -5.28125 L 2.0625 0 L 1.25 0 L 1.25 -5.28125 L 0.1875 -5.28125 L 0.1875 -5.953125 L 1.25 -5.953125 L 1.25 -6.6875 C 1.25 -7.238281 1.40625 -7.671875 1.71875 -7.984375 C 2.039062 -8.304688 2.488281 -8.46875 3.0625 -8.46875 C 3.289062 -8.46875 3.507812 -8.429688 3.71875 -8.359375 C 3.925781 -8.296875 4.101562 -8.207031 4.25 -8.09375 L 3.96875 -7.484375 C 3.738281 -7.679688 3.445312 -7.78125 3.09375 -7.78125 Z M 3.09375 -7.78125 "/></g></g></g><g fill="#000000" fill-opacity="1"><g transform="translate(113.853541, 357.693587)"><g/></g></g><g fill="#000000" fill-opacity="1"><g transform="translate(116.820279, 357.693587)"><g><path d="M 1.296875 -7.9375 L 2.125 -7.9375 L 2.125 0 L 1.296875 0 Z M 1.296875 -7.9375 "/></g></g></g><g fill="#000000" fill-opacity="1"><g transform="translate(120.239959, 357.693587)"><g><path d="M 4.15625 -6 C 4.90625 -6 5.5 -5.78125 5.9375 -5.34375 C 6.382812 -4.914062 6.609375 -4.285156 6.609375 -3.453125 L 6.609375 0 L 5.796875 0 L 5.796875 -3.375 C 5.796875 -4 5.640625 -4.472656 5.328125 -4.796875 C 5.023438 -5.117188 4.585938 -5.28125 4.015625 -5.28125 C 3.367188 -5.28125 2.859375 -5.085938 2.484375 -4.703125 C 2.109375 -4.328125 1.921875 -3.800781 1.921875 -3.125 L 1.921875 0 L 1.125 0 L 1.125 -5.953125 L 1.890625 -5.953125 L 1.890625 -4.859375 C 2.109375 -5.222656 2.410156 -5.503906 2.796875 -5.703125 C 3.191406 -5.898438 3.644531 -6 4.15625 -6 Z M 4.15625 -6 "/></g></g></g><g fill="#000000" fill-opacity="1"><g transform="translate(127.905923, 357.693587)"><g><path d="M 4.15625 -6 C 4.90625 -6 5.5 -5.78125 5.9375 -5.34375 C 6.382812 -4.914062 6.609375 -4.285156 6.609375 -3.453125 L 6.609375 0 L 5.796875 0 L 5.796875 -3.375 C 5.796875 -4 5.640625 -4.472656 5.328125 -4.796875 C 5.023438 -5.117188 4.585938 -5.28125 4.015625 -5.28125 C 3.367188 -5.28125 2.859375 -5.085938 2.484375 -4.703125 C 2.109375 -4.328125 1.921875 -3.800781 1.921875 -3.125 L 1.921875 0 L 1.125 0 L 1.125 -5.953125 L 1.890625 -5.953125 L 1.890625 -4.859375 C 2.109375 -5.222656 2.410156 -5.503906 2.796875 -5.703125 C 3.191406 -5.898438 3.644531 -6 4.15625 -6 Z M 4.15625 -6 "/></g></g></g><g fill="#000000" fill-opacity="1"><g transform="translate(135.571886, 357.693587)"><g><path d="M 3.5625 0.0625 C 2.988281 0.0625 2.46875 -0.0664062 2 -0.328125 C 1.539062 -0.585938 1.175781 -0.945312 0.90625 -1.40625 C 0.644531 -1.875 0.515625 -2.398438 0.515625 -2.984375 C 0.515625 -3.566406 0.644531 -4.085938 0.90625 -4.546875 C 1.175781 -5.003906 1.539062 -5.359375 2 -5.609375 C 2.46875 -5.867188 2.988281 -6 3.5625 -6 C 4.132812 -6 4.648438 -5.867188 5.109375 -5.609375 C 5.566406 -5.359375 5.925781 -5.003906 6.1875 -4.546875 C 6.445312 -4.085938 6.578125 -3.566406 6.578125 -2.984375 C 6.578125 -2.398438 6.445312 -1.875 6.1875 -1.40625 C 5.925781 -0.945312 5.566406 -0.585938 5.109375 -0.328125 C 4.648438 -0.0664062 4.132812 0.0625 3.5625 0.0625 Z M 3.5625 -0.65625 C 3.976562 -0.65625 4.351562 -0.75 4.6875 -0.9375 C 5.03125 -1.132812 5.296875 -1.410156 5.484375 -1.765625 C 5.671875 -2.117188 5.765625 -2.523438 5.765625 -2.984375 C 5.765625 -3.429688 5.671875 -3.832031 5.484375 -4.1875 C 5.296875 -4.539062 5.03125 -4.8125 4.6875 -5 C 4.351562 -5.195312 3.976562 -5.296875 3.5625 -5.296875 C 3.132812 -5.296875 2.753906 -5.195312 2.421875 -5 C 2.085938 -4.8125 1.820312 -4.539062 1.625 -4.1875 C 1.4375 -3.832031 1.34375 -3.429688 1.34375 -2.984375 C 1.34375 -2.523438 1.4375 -2.117188 1.625 -1.765625 C 1.820312 -1.410156 2.085938 -1.132812 2.421875 -0.9375 C 2.753906 -0.75 3.132812 -0.65625 3.5625 -0.65625 Z M 3.5625 -0.65625 "/></g></g></g><g fill="#000000" fill-opacity="1"><g transform="translate(142.671676, 357.693587)"><g><path d="M 6.125 -5.953125 L 3.484375 0 L 2.65625 0 L 0.015625 -5.953125 L 0.84375 -5.953125 L 3.078125 -0.890625 L 5.328125 -5.953125 Z M 6.125 -5.953125 "/></g></g></g><g fill="#000000" fill-opacity="1"><g transform="translate(148.808971, 357.693587)"><g><path d="M 3.203125 -6 C 3.984375 -6 4.582031 -5.804688 5 -5.421875 C 5.414062 -5.035156 5.625 -4.457031 5.625 -3.6875 L 5.625 0 L 4.84375 0 L 4.84375 -0.921875 C 4.664062 -0.617188 4.398438 -0.378906 4.046875 -0.203125 C 3.691406 -0.0234375 3.273438 0.0625 2.796875 0.0625 C 2.128906 0.0625 1.597656 -0.09375 1.203125 -0.40625 C 0.816406 -0.726562 0.625 -1.148438 0.625 -1.671875 C 0.625 -2.179688 0.804688 -2.585938 1.171875 -2.890625 C 1.535156 -3.203125 2.117188 -3.359375 2.921875 -3.359375 L 4.8125 -3.359375 L 4.8125 -3.734375 C 4.8125 -4.242188 4.664062 -4.628906 4.375 -4.890625 C 4.09375 -5.160156 3.675781 -5.296875 3.125 -5.296875 C 2.75 -5.296875 2.382812 -5.234375 2.03125 -5.109375 C 1.6875 -4.984375 1.390625 -4.8125 1.140625 -4.59375 L 0.78125 -5.203125 C 1.082031 -5.453125 1.441406 -5.644531 1.859375 -5.78125 C 2.285156 -5.925781 2.734375 -6 3.203125 -6 Z M 2.921875 -0.578125 C 3.378906 -0.578125 3.769531 -0.679688 4.09375 -0.890625 C 4.414062 -1.097656 4.65625 -1.398438 4.8125 -1.796875 L 4.8125 -2.765625 L 2.953125 -2.765625 C 1.929688 -2.765625 1.421875 -2.410156 1.421875 -1.703125 C 1.421875 -1.347656 1.550781 -1.070312 1.8125 -0.875 C 2.070312 -0.675781 2.441406 -0.578125 2.921875 -0.578125 Z M 2.921875 -0.578125 "/></g></g></g><g fill="#000000" fill-opacity="1"><g transform="translate(155.489794, 357.693587)"><g><path d="M 4.265625 -0.359375 C 4.109375 -0.222656 3.914062 -0.117188 3.6875 -0.046875 C 3.46875 0.0234375 3.238281 0.0625 3 0.0625 C 2.4375 0.0625 2.003906 -0.0859375 1.703125 -0.390625 C 1.398438 -0.691406 1.25 -1.117188 1.25 -1.671875 L 1.25 -5.28125 L 0.1875 -5.28125 L 0.1875 -5.953125 L 1.25 -5.953125 L 1.25 -7.265625 L 2.0625 -7.265625 L 2.0625 -5.953125 L 3.875 -5.953125 L 3.875 -5.28125 L 2.0625 -5.28125 L 2.0625 -1.71875 C 2.0625 -1.363281 2.148438 -1.09375 2.328125 -0.90625 C 2.503906 -0.726562 2.757812 -0.640625 3.09375 -0.640625 C 3.257812 -0.640625 3.421875 -0.664062 3.578125 -0.71875 C 3.734375 -0.769531 3.863281 -0.84375 3.96875 -0.9375 Z M 4.265625 -0.359375 "/></g></g></g><g fill="#000000" fill-opacity="1"><g transform="translate(160.087104, 357.693587)"><g><path d="M 1.125 -5.953125 L 1.921875 -5.953125 L 1.921875 0 L 1.125 0 Z M 1.515625 -7.265625 C 1.359375 -7.265625 1.222656 -7.316406 1.109375 -7.421875 C 0.992188 -7.535156 0.9375 -7.675781 0.9375 -7.84375 C 0.9375 -7.988281 0.992188 -8.117188 1.109375 -8.234375 C 1.222656 -8.347656 1.359375 -8.40625 1.515625 -8.40625 C 1.679688 -8.40625 1.820312 -8.347656 1.9375 -8.234375 C 2.050781 -8.128906 2.109375 -8 2.109375 -7.84375 C 2.109375 -7.675781 2.050781 -7.535156 1.9375 -7.421875 C 1.820312 -7.316406 1.679688 -7.265625 1.515625 -7.265625 Z M 1.515625 -7.265625 "/></g></g></g><g fill="#000000" fill-opacity="1"><g transform="translate(163.133111, 357.693587)"><g><path d="M 3.5625 0.0625 C 2.988281 0.0625 2.46875 -0.0664062 2 -0.328125 C 1.539062 -0.585938 1.175781 -0.945312 0.90625 -1.40625 C 0.644531 -1.875 0.515625 -2.398438 0.515625 -2.984375 C 0.515625 -3.566406 0.644531 -4.085938 0.90625 -4.546875 C 1.175781 -5.003906 1.539062 -5.359375 2 -5.609375 C 2.46875 -5.867188 2.988281 -6 3.5625 -6 C 4.132812 -6 4.648438 -5.867188 5.109375 -5.609375 C 5.566406 -5.359375 5.925781 -5.003906 6.1875 -4.546875 C 6.445312 -4.085938 6.578125 -3.566406 6.578125 -2.984375 C 6.578125 -2.398438 6.445312 -1.875 6.1875 -1.40625 C 5.925781 -0.945312 5.566406 -0.585938 5.109375 -0.328125 C 4.648438 -0.0664062 4.132812 0.0625 3.5625 0.0625 Z M 3.5625 -0.65625 C 3.976562 -0.65625 4.351562 -0.75 4.6875 -0.9375 C 5.03125 -1.132812 5.296875 -1.410156 5.484375 -1.765625 C 5.671875 -2.117188 5.765625 -2.523438 5.765625 -2.984375 C 5.765625 -3.429688 5.671875 -3.832031 5.484375 -4.1875 C 5.296875 -4.539062 5.03125 -4.8125 4.6875 -5 C 4.351562 -5.195312 3.976562 -5.296875 3.5625 -5.296875 C 3.132812 -5.296875 2.753906 -5.195312 2.421875 -5 C 2.085938 -4.8125 1.820312 -4.539062 1.625 -4.1875 C 1.4375 -3.832031 1.34375 -3.429688 1.34375 -2.984375 C 1.34375 -2.523438 1.4375 -2.117188 1.625 -1.765625 C 1.820312 -1.410156 2.085938 -1.132812 2.421875 -0.9375 C 2.753906 -0.75 3.132812 -0.65625 3.5625 -0.65625 Z M 3.5625 -0.65625 "/></g></g></g><g fill="#000000" fill-opacity="1"><g transform="translate(170.232901, 357.693587)"><g><path d="M 4.15625 -6 C 4.90625 -6 5.5 -5.78125 5.9375 -5.34375 C 6.382812 -4.914062 6.609375 -4.285156 6.609375 -3.453125 L 6.609375 0 L 5.796875 0 L 5.796875 -3.375 C 5.796875 -4 5.640625 -4.472656 5.328125 -4.796875 C 5.023438 -5.117188 4.585938 -5.28125 4.015625 -5.28125 C 3.367188 -5.28125 2.859375 -5.085938 2.484375 -4.703125 C 2.109375 -4.328125 1.921875 -3.800781 1.921875 -3.125 L 1.921875 0 L 1.125 0 L 1.125 -5.953125 L 1.890625 -5.953125 L 1.890625 -4.859375 C 2.109375 -5.222656 2.410156 -5.503906 2.796875 -5.703125 C 3.191406 -5.898438 3.644531 -6 4.15625 -6 Z M 4.15625 -6 "/></g></g></g><g fill="#000000" fill-opacity="1"><g transform="translate(177.898864, 357.693587)"><g><path d="M 1.21875 -1.171875 C 1.382812 -1.171875 1.523438 -1.113281 1.640625 -1 C 1.753906 -0.882812 1.8125 -0.738281 1.8125 -0.5625 C 1.8125 -0.476562 1.796875 -0.378906 1.765625 -0.265625 C 1.742188 -0.160156 1.707031 -0.0390625 1.65625 0.09375 L 1.171875 1.65625 L 0.640625 1.65625 L 1.015625 0.015625 C 0.898438 -0.0234375 0.800781 -0.09375 0.71875 -0.1875 C 0.644531 -0.289062 0.609375 -0.414062 0.609375 -0.5625 C 0.609375 -0.738281 0.664062 -0.882812 0.78125 -1 C 0.894531 -1.113281 1.039062 -1.171875 1.21875 -1.171875 Z M 1.21875 -1.171875 "/></g></g></g><g fill="#000000" fill-opacity="1"><g transform="translate(180.299428, 357.693587)"><g/></g></g><g fill="#000000" fill-opacity="1"><g transform="translate(183.266167, 357.693587)"><g><path d="M 7.921875 -7.9375 L 7.921875 0 L 7.09375 0 L 7.09375 -3.65625 L 2.125 -3.65625 L 2.125 0 L 1.296875 0 L 1.296875 -7.9375 L 2.125 -7.9375 L 2.125 -4.390625 L 7.09375 -4.390625 L 7.09375 -7.9375 Z M 7.921875 -7.9375 "/></g></g></g><g fill="#000000" fill-opacity="1"><g transform="translate(192.472116, 357.693587)"><g><path d="M 3.203125 -6 C 3.984375 -6 4.582031 -5.804688 5 -5.421875 C 5.414062 -5.035156 5.625 -4.457031 5.625 -3.6875 L 5.625 0 L 4.84375 0 L 4.84375 -0.921875 C 4.664062 -0.617188 4.398438 -0.378906 4.046875 -0.203125 C 3.691406 -0.0234375 3.273438 0.0625 2.796875 0.0625 C 2.128906 0.0625 1.597656 -0.09375 1.203125 -0.40625 C 0.816406 -0.726562 0.625 -1.148438 0.625 -1.671875 C 0.625 -2.179688 0.804688 -2.585938 1.171875 -2.890625 C 1.535156 -3.203125 2.117188 -3.359375 2.921875 -3.359375 L 4.8125 -3.359375 L 4.8125 -3.734375 C 4.8125 -4.242188 4.664062 -4.628906 4.375 -4.890625 C 4.09375 -5.160156 3.675781 -5.296875 3.125 -5.296875 C 2.75 -5.296875 2.382812 -5.234375 2.03125 -5.109375 C 1.6875 -4.984375 1.390625 -4.8125 1.140625 -4.59375 L 0.78125 -5.203125 C 1.082031 -5.453125 1.441406 -5.644531 1.859375 -5.78125 C 2.285156 -5.925781 2.734375 -6 3.203125 -6 Z M 2.921875 -0.578125 C 3.378906 -0.578125 3.769531 -0.679688 4.09375 -0.890625 C 4.414062 -1.097656 4.65625 -1.398438 4.8125 -1.796875 L 4.8125 -2.765625 L 2.953125 -2.765625 C 1.929688 -2.765625 1.421875 -2.410156 1.421875 -1.703125 C 1.421875 -1.347656 1.550781 -1.070312 1.8125 -0.875 C 2.070312 -0.675781 2.441406 -0.578125 2.921875 -0.578125 Z M 2.921875 -0.578125 "/></g></g></g><g fill="#000000" fill-opacity="1"><g transform="translate(199.152939, 357.693587)"><g><path d="M 1.890625 -4.796875 C 2.078125 -5.191406 2.359375 -5.488281 2.734375 -5.6875 C 3.109375 -5.894531 3.570312 -6 4.125 -6 L 4.125 -5.21875 L 3.9375 -5.234375 C 3.300781 -5.234375 2.804688 -5.039062 2.453125 -4.65625 C 2.097656 -4.269531 1.921875 -3.726562 1.921875 -3.03125 L 1.921875 0 L 1.125 0 L 1.125 -5.953125 L 1.890625 -5.953125 Z M 1.890625 -4.796875 "/></g></g></g><g fill="#000000" fill-opacity="1"><g transform="translate(203.693638, 357.693587)"><g><path d="M 6.125 -5.953125 L 3.484375 0 L 2.65625 0 L 0.015625 -5.953125 L 0.84375 -5.953125 L 3.078125 -0.890625 L 5.328125 -5.953125 Z M 6.125 -5.953125 "/></g></g></g><g fill="#000000" fill-opacity="1"><g transform="translate(209.830934, 357.693587)"><g><path d="M 6.3125 -2.734375 L 1.328125 -2.734375 C 1.367188 -2.109375 1.601562 -1.601562 2.03125 -1.21875 C 2.46875 -0.84375 3.015625 -0.65625 3.671875 -0.65625 C 4.035156 -0.65625 4.375 -0.71875 4.6875 -0.84375 C 5 -0.976562 5.269531 -1.175781 5.5 -1.4375 L 5.953125 -0.921875 C 5.679688 -0.597656 5.347656 -0.351562 4.953125 -0.1875 C 4.554688 -0.0195312 4.117188 0.0625 3.640625 0.0625 C 3.035156 0.0625 2.492188 -0.0664062 2.015625 -0.328125 C 1.546875 -0.585938 1.175781 -0.945312 0.90625 -1.40625 C 0.644531 -1.875 0.515625 -2.398438 0.515625 -2.984375 C 0.515625 -3.566406 0.640625 -4.085938 0.890625 -4.546875 C 1.148438 -5.003906 1.5 -5.359375 1.9375 -5.609375 C 2.382812 -5.867188 2.882812 -6 3.4375 -6 C 3.988281 -6 4.484375 -5.867188 4.921875 -5.609375 C 5.359375 -5.359375 5.703125 -5.003906 5.953125 -4.546875 C 6.203125 -4.085938 6.328125 -3.566406 6.328125 -2.984375 Z M 3.4375 -5.3125 C 2.863281 -5.3125 2.378906 -5.128906 1.984375 -4.765625 C 1.597656 -4.398438 1.378906 -3.921875 1.328125 -3.328125 L 5.546875 -3.328125 C 5.492188 -3.921875 5.273438 -4.398438 4.890625 -4.765625 C 4.503906 -5.128906 4.019531 -5.3125 3.4375 -5.3125 Z M 3.4375 -5.3125 "/></g></g></g><g fill="#000000" fill-opacity="1"><g transform="translate(216.670282, 357.693587)"><g><path d="M 2.71875 0.0625 C 2.238281 0.0625 1.773438 -0.00390625 1.328125 -0.140625 C 0.890625 -0.285156 0.546875 -0.46875 0.296875 -0.6875 L 0.65625 -1.3125 C 0.90625 -1.113281 1.21875 -0.953125 1.59375 -0.828125 C 1.96875 -0.703125 2.363281 -0.640625 2.78125 -0.640625 C 3.320312 -0.640625 3.722656 -0.722656 3.984375 -0.890625 C 4.242188 -1.066406 4.375 -1.3125 4.375 -1.625 C 4.375 -1.84375 4.300781 -2.015625 4.15625 -2.140625 C 4.007812 -2.265625 3.828125 -2.359375 3.609375 -2.421875 C 3.390625 -2.484375 3.097656 -2.546875 2.734375 -2.609375 C 2.253906 -2.691406 1.867188 -2.78125 1.578125 -2.875 C 1.285156 -2.976562 1.035156 -3.140625 0.828125 -3.359375 C 0.617188 -3.585938 0.515625 -3.90625 0.515625 -4.3125 C 0.515625 -4.800781 0.71875 -5.203125 1.125 -5.515625 C 1.539062 -5.835938 2.117188 -6 2.859375 -6 C 3.242188 -6 3.628906 -5.945312 4.015625 -5.84375 C 4.398438 -5.75 4.71875 -5.617188 4.96875 -5.453125 L 4.625 -4.796875 C 4.132812 -5.140625 3.546875 -5.3125 2.859375 -5.3125 C 2.347656 -5.3125 1.960938 -5.21875 1.703125 -5.03125 C 1.441406 -4.851562 1.3125 -4.617188 1.3125 -4.328125 C 1.3125 -4.097656 1.382812 -3.914062 1.53125 -3.78125 C 1.675781 -3.644531 1.859375 -3.546875 2.078125 -3.484375 C 2.296875 -3.421875 2.597656 -3.351562 2.984375 -3.28125 C 3.460938 -3.195312 3.84375 -3.109375 4.125 -3.015625 C 4.414062 -2.921875 4.660156 -2.765625 4.859375 -2.546875 C 5.066406 -2.328125 5.171875 -2.023438 5.171875 -1.640625 C 5.171875 -1.117188 4.953125 -0.703125 4.515625 -0.390625 C 4.085938 -0.0859375 3.488281 0.0625 2.71875 0.0625 Z M 2.71875 0.0625 "/></g></g></g><g fill="#000000" fill-opacity="1"><g transform="translate(222.20744, 357.693587)"><g><path d="M 4.265625 -0.359375 C 4.109375 -0.222656 3.914062 -0.117188 3.6875 -0.046875 C 3.46875 0.0234375 3.238281 0.0625 3 0.0625 C 2.4375 0.0625 2.003906 -0.0859375 1.703125 -0.390625 C 1.398438 -0.691406 1.25 -1.117188 1.25 -1.671875 L 1.25 -5.28125 L 0.1875 -5.28125 L 0.1875 -5.953125 L 1.25 -5.953125 L 1.25 -7.265625 L 2.0625 -7.265625 L 2.0625 -5.953125 L 3.875 -5.953125 L 3.875 -5.28125 L 2.0625 -5.28125 L 2.0625 -1.71875 C 2.0625 -1.363281 2.148438 -1.09375 2.328125 -0.90625 C 2.503906 -0.726562 2.757812 -0.640625 3.09375 -0.640625 C 3.257812 -0.640625 3.421875 -0.664062 3.578125 -0.71875 C 3.734375 -0.769531 3.863281 -0.84375 3.96875 -0.9375 Z M 4.265625 -0.359375 "/></g></g></g><g fill="#000000" fill-opacity="1"><g transform="translate(226.80475, 357.693587)"><g><path d="M 1.125 -5.953125 L 1.921875 -5.953125 L 1.921875 0 L 1.125 0 Z M 1.515625 -7.265625 C 1.359375 -7.265625 1.222656 -7.316406 1.109375 -7.421875 C 0.992188 -7.535156 0.9375 -7.675781 0.9375 -7.84375 C 0.9375 -7.988281 0.992188 -8.117188 1.109375 -8.234375 C 1.222656 -8.347656 1.359375 -8.40625 1.515625 -8.40625 C 1.679688 -8.40625 1.820312 -8.347656 1.9375 -8.234375 C 2.050781 -8.128906 2.109375 -8 2.109375 -7.84375 C 2.109375 -7.675781 2.050781 -7.535156 1.9375 -7.421875 C 1.820312 -7.316406 1.679688 -7.265625 1.515625 -7.265625 Z M 1.515625 -7.265625 "/></g></g></g><g fill="#000000" fill-opacity="1"><g transform="translate(229.850757, 357.693587)"><g><path d="M 4.15625 -6 C 4.90625 -6 5.5 -5.78125 5.9375 -5.34375 C 6.382812 -4.914062 6.609375 -4.285156 6.609375 -3.453125 L 6.609375 0 L 5.796875 0 L 5.796875 -3.375 C 5.796875 -4 5.640625 -4.472656 5.328125 -4.796875 C 5.023438 -5.117188 4.585938 -5.28125 4.015625 -5.28125 C 3.367188 -5.28125 2.859375 -5.085938 2.484375 -4.703125 C 2.109375 -4.328125 1.921875 -3.800781 1.921875 -3.125 L 1.921875 0 L 1.125 0 L 1.125 -5.953125 L 1.890625 -5.953125 L 1.890625 -4.859375 C 2.109375 -5.222656 2.410156 -5.503906 2.796875 -5.703125 C 3.191406 -5.898438 3.644531 -6 4.15625 -6 Z M 4.15625 -6 "/></g></g></g><g fill="#000000" fill-opacity="1"><g transform="translate(237.51672, 357.693587)"><g><path d="M 6.640625 -5.953125 L 6.640625 -0.71875 C 6.640625 0.289062 6.390625 1.035156 5.890625 1.515625 C 5.398438 2.003906 4.65625 2.25 3.65625 2.25 C 3.101562 2.25 2.578125 2.164062 2.078125 2 C 1.585938 1.84375 1.191406 1.625 0.890625 1.34375 L 1.296875 0.71875 C 1.578125 0.976562 1.921875 1.179688 2.328125 1.328125 C 2.742188 1.472656 3.179688 1.546875 3.640625 1.546875 C 4.390625 1.546875 4.941406 1.367188 5.296875 1.015625 C 5.648438 0.660156 5.828125 0.113281 5.828125 -0.625 L 5.828125 -1.375 C 5.578125 -1 5.25 -0.710938 4.84375 -0.515625 C 4.445312 -0.328125 4.003906 -0.234375 3.515625 -0.234375 C 2.953125 -0.234375 2.441406 -0.351562 1.984375 -0.59375 C 1.523438 -0.84375 1.164062 -1.1875 0.90625 -1.625 C 0.644531 -2.0625 0.515625 -2.5625 0.515625 -3.125 C 0.515625 -3.6875 0.644531 -4.1875 0.90625 -4.625 C 1.164062 -5.0625 1.519531 -5.398438 1.96875 -5.640625 C 2.425781 -5.878906 2.941406 -6 3.515625 -6 C 4.015625 -6 4.46875 -5.894531 4.875 -5.6875 C 5.289062 -5.488281 5.625 -5.195312 5.875 -4.8125 L 5.875 -5.953125 Z M 3.59375 -0.9375 C 4.019531 -0.9375 4.40625 -1.03125 4.75 -1.21875 C 5.101562 -1.40625 5.375 -1.664062 5.5625 -2 C 5.757812 -2.332031 5.859375 -2.707031 5.859375 -3.125 C 5.859375 -3.550781 5.757812 -3.925781 5.5625 -4.25 C 5.375 -4.582031 5.109375 -4.835938 4.765625 -5.015625 C 4.421875 -5.203125 4.03125 -5.296875 3.59375 -5.296875 C 3.164062 -5.296875 2.78125 -5.207031 2.4375 -5.03125 C 2.09375 -4.851562 1.820312 -4.597656 1.625 -4.265625 C 1.4375 -3.929688 1.34375 -3.550781 1.34375 -3.125 C 1.34375 -2.707031 1.4375 -2.332031 1.625 -2 C 1.820312 -1.664062 2.09375 -1.40625 2.4375 -1.21875 C 2.78125 -1.03125 3.164062 -0.9375 3.59375 -0.9375 Z M 3.59375 -0.9375 "/></g></g></g><g fill="#000000" fill-opacity="1"><g transform="translate(245.284599, 357.693587)"><g/></g></g><g fill="#000000" fill-opacity="1"><g transform="translate(248.251337, 357.693587)"><g><path d="M 6.90625 -0.71875 L 6.90625 0 L 1.296875 0 L 1.296875 -7.9375 L 6.734375 -7.9375 L 6.734375 -7.203125 L 2.125 -7.203125 L 2.125 -4.390625 L 6.234375 -4.390625 L 6.234375 -3.671875 L 2.125 -3.671875 L 2.125 -0.71875 Z M 6.90625 -0.71875 "/></g></g></g><g fill="#000000" fill-opacity="1"><g transform="translate(255.826715, 357.693587)"><g><path d="M 4.921875 0 L 3.03125 -2.5 L 1.125 0 L 0.21875 0 L 2.578125 -3.0625 L 0.328125 -5.953125 L 1.234375 -5.953125 L 3.03125 -3.625 L 4.8125 -5.953125 L 5.703125 -5.953125 L 3.453125 -3.0625 L 5.828125 0 Z M 4.921875 0 "/></g></g></g><g fill="#000000" fill-opacity="1"><g transform="translate(261.873424, 357.693587)"><g><path d="M 3.59375 0.0625 C 3 0.0625 2.46875 -0.0664062 2 -0.328125 C 1.539062 -0.585938 1.175781 -0.945312 0.90625 -1.40625 C 0.644531 -1.875 0.515625 -2.398438 0.515625 -2.984375 C 0.515625 -3.566406 0.644531 -4.085938 0.90625 -4.546875 C 1.175781 -5.003906 1.539062 -5.359375 2 -5.609375 C 2.46875 -5.867188 3 -6 3.59375 -6 C 4.101562 -6 4.5625 -5.898438 4.96875 -5.703125 C 5.375 -5.503906 5.691406 -5.210938 5.921875 -4.828125 L 5.328125 -4.421875 C 5.128906 -4.710938 4.878906 -4.929688 4.578125 -5.078125 C 4.273438 -5.222656 3.945312 -5.296875 3.59375 -5.296875 C 3.164062 -5.296875 2.78125 -5.195312 2.4375 -5 C 2.09375 -4.8125 1.820312 -4.539062 1.625 -4.1875 C 1.4375 -3.832031 1.34375 -3.429688 1.34375 -2.984375 C 1.34375 -2.515625 1.4375 -2.101562 1.625 -1.75 C 1.820312 -1.40625 2.09375 -1.132812 2.4375 -0.9375 C 2.78125 -0.75 3.164062 -0.65625 3.59375 -0.65625 C 3.945312 -0.65625 4.273438 -0.726562 4.578125 -0.875 C 4.878906 -1.019531 5.128906 -1.238281 5.328125 -1.53125 L 5.921875 -1.125 C 5.691406 -0.738281 5.367188 -0.441406 4.953125 -0.234375 C 4.546875 -0.0351562 4.09375 0.0625 3.59375 0.0625 Z M 3.59375 0.0625 "/></g></g></g><g fill="#000000" fill-opacity="1"><g transform="translate(268.248502, 357.693587)"><g><path d="M 6.3125 -2.734375 L 1.328125 -2.734375 C 1.367188 -2.109375 1.601562 -1.601562 2.03125 -1.21875 C 2.46875 -0.84375 3.015625 -0.65625 3.671875 -0.65625 C 4.035156 -0.65625 4.375 -0.71875 4.6875 -0.84375 C 5 -0.976562 5.269531 -1.175781 5.5 -1.4375 L 5.953125 -0.921875 C 5.679688 -0.597656 5.347656 -0.351562 4.953125 -0.1875 C 4.554688 -0.0195312 4.117188 0.0625 3.640625 0.0625 C 3.035156 0.0625 2.492188 -0.0664062 2.015625 -0.328125 C 1.546875 -0.585938 1.175781 -0.945312 0.90625 -1.40625 C 0.644531 -1.875 0.515625 -2.398438 0.515625 -2.984375 C 0.515625 -3.566406 0.640625 -4.085938 0.890625 -4.546875 C 1.148438 -5.003906 1.5 -5.359375 1.9375 -5.609375 C 2.382812 -5.867188 2.882812 -6 3.4375 -6 C 3.988281 -6 4.484375 -5.867188 4.921875 -5.609375 C 5.359375 -5.359375 5.703125 -5.003906 5.953125 -4.546875 C 6.203125 -4.085938 6.328125 -3.566406 6.328125 -2.984375 Z M 3.4375 -5.3125 C 2.863281 -5.3125 2.378906 -5.128906 1.984375 -4.765625 C 1.597656 -4.398438 1.378906 -3.921875 1.328125 -3.328125 L 5.546875 -3.328125 C 5.492188 -3.921875 5.273438 -4.398438 4.890625 -4.765625 C 4.503906 -5.128906 4.019531 -5.3125 3.4375 -5.3125 Z M 3.4375 -5.3125 "/></g></g></g><g fill="#000000" fill-opacity="1"><g transform="translate(275.087862, 357.693587)"><g><path d="M 1.125 -8.40625 L 1.921875 -8.40625 L 1.921875 0 L 1.125 0 Z M 1.125 -8.40625 "/></g></g></g><g fill="#000000" fill-opacity="1"><g transform="translate(278.133881, 357.693587)"><g><path d="M 1.125 -8.40625 L 1.921875 -8.40625 L 1.921875 0 L 1.125 0 Z M 1.125 -8.40625 "/></g></g></g><g fill="#000000" fill-opacity="1"><g transform="translate(281.1799, 357.693587)"><g><path d="M 6.3125 -2.734375 L 1.328125 -2.734375 C 1.367188 -2.109375 1.601562 -1.601562 2.03125 -1.21875 C 2.46875 -0.84375 3.015625 -0.65625 3.671875 -0.65625 C 4.035156 -0.65625 4.375 -0.71875 4.6875 -0.84375 C 5 -0.976562 5.269531 -1.175781 5.5 -1.4375 L 5.953125 -0.921875 C 5.679688 -0.597656 5.347656 -0.351562 4.953125 -0.1875 C 4.554688 -0.0195312 4.117188 0.0625 3.640625 0.0625 C 3.035156 0.0625 2.492188 -0.0664062 2.015625 -0.328125 C 1.546875 -0.585938 1.175781 -0.945312 0.90625 -1.40625 C 0.644531 -1.875 0.515625 -2.398438 0.515625 -2.984375 C 0.515625 -3.566406 0.640625 -4.085938 0.890625 -4.546875 C 1.148438 -5.003906 1.5 -5.359375 1.9375 -5.609375 C 2.382812 -5.867188 2.882812 -6 3.4375 -6 C 3.988281 -6 4.484375 -5.867188 4.921875 -5.609375 C 5.359375 -5.359375 5.703125 -5.003906 5.953125 -4.546875 C 6.203125 -4.085938 6.328125 -3.566406 6.328125 -2.984375 Z M 3.4375 -5.3125 C 2.863281 -5.3125 2.378906 -5.128906 1.984375 -4.765625 C 1.597656 -4.398438 1.378906 -3.921875 1.328125 -3.328125 L 5.546875 -3.328125 C 5.492188 -3.921875 5.273438 -4.398438 4.890625 -4.765625 C 4.503906 -5.128906 4.019531 -5.3125 3.4375 -5.3125 Z M 3.4375 -5.3125 "/></g></g></g><g fill="#000000" fill-opacity="1"><g transform="translate(288.019261, 357.693587)"><g><path d="M 4.15625 -6 C 4.90625 -6 5.5 -5.78125 5.9375 -5.34375 C 6.382812 -4.914062 6.609375 -4.285156 6.609375 -3.453125 L 6.609375 0 L 5.796875 0 L 5.796875 -3.375 C 5.796875 -4 5.640625 -4.472656 5.328125 -4.796875 C 5.023438 -5.117188 4.585938 -5.28125 4.015625 -5.28125 C 3.367188 -5.28125 2.859375 -5.085938 2.484375 -4.703125 C 2.109375 -4.328125 1.921875 -3.800781 1.921875 -3.125 L 1.921875 0 L 1.125 0 L 1.125 -5.953125 L 1.890625 -5.953125 L 1.890625 -4.859375 C 2.109375 -5.222656 2.410156 -5.503906 2.796875 -5.703125 C 3.191406 -5.898438 3.644531 -6 4.15625 -6 Z M 4.15625 -6 "/></g></g></g><g fill="#000000" fill-opacity="1"><g transform="translate(295.685212, 357.693587)"><g><path d="M 3.59375 0.0625 C 3 0.0625 2.46875 -0.0664062 2 -0.328125 C 1.539062 -0.585938 1.175781 -0.945312 0.90625 -1.40625 C 0.644531 -1.875 0.515625 -2.398438 0.515625 -2.984375 C 0.515625 -3.566406 0.644531 -4.085938 0.90625 -4.546875 C 1.175781 -5.003906 1.539062 -5.359375 2 -5.609375 C 2.46875 -5.867188 3 -6 3.59375 -6 C 4.101562 -6 4.5625 -5.898438 4.96875 -5.703125 C 5.375 -5.503906 5.691406 -5.210938 5.921875 -4.828125 L 5.328125 -4.421875 C 5.128906 -4.710938 4.878906 -4.929688 4.578125 -5.078125 C 4.273438 -5.222656 3.945312 -5.296875 3.59375 -5.296875 C 3.164062 -5.296875 2.78125 -5.195312 2.4375 -5 C 2.09375 -4.8125 1.820312 -4.539062 1.625 -4.1875 C 1.4375 -3.832031 1.34375 -3.429688 1.34375 -2.984375 C 1.34375 -2.515625 1.4375 -2.101562 1.625 -1.75 C 1.820312 -1.40625 2.09375 -1.132812 2.4375 -0.9375 C 2.78125 -0.75 3.164062 -0.65625 3.59375 -0.65625 C 3.945312 -0.65625 4.273438 -0.726562 4.578125 -0.875 C 4.878906 -1.019531 5.128906 -1.238281 5.328125 -1.53125 L 5.921875 -1.125 C 5.691406 -0.738281 5.367188 -0.441406 4.953125 -0.234375 C 4.546875 -0.0351562 4.09375 0.0625 3.59375 0.0625 Z M 3.59375 0.0625 "/></g></g></g><g fill="#000000" fill-opacity="1"><g transform="translate(302.060302, 357.693587)"><g><path d="M 6.3125 -2.734375 L 1.328125 -2.734375 C 1.367188 -2.109375 1.601562 -1.601562 2.03125 -1.21875 C 2.46875 -0.84375 3.015625 -0.65625 3.671875 -0.65625 C 4.035156 -0.65625 4.375 -0.71875 4.6875 -0.84375 C 5 -0.976562 5.269531 -1.175781 5.5 -1.4375 L 5.953125 -0.921875 C 5.679688 -0.597656 5.347656 -0.351562 4.953125 -0.1875 C 4.554688 -0.0195312 4.117188 0.0625 3.640625 0.0625 C 3.035156 0.0625 2.492188 -0.0664062 2.015625 -0.328125 C 1.546875 -0.585938 1.175781 -0.945312 0.90625 -1.40625 C 0.644531 -1.875 0.515625 -2.398438 0.515625 -2.984375 C 0.515625 -3.566406 0.640625 -4.085938 0.890625 -4.546875 C 1.148438 -5.003906 1.5 -5.359375 1.9375 -5.609375 C 2.382812 -5.867188 2.882812 -6 3.4375 -6 C 3.988281 -6 4.484375 -5.867188 4.921875 -5.609375 C 5.359375 -5.359375 5.703125 -5.003906 5.953125 -4.546875 C 6.203125 -4.085938 6.328125 -3.566406 6.328125 -2.984375 Z M 3.4375 -5.3125 C 2.863281 -5.3125 2.378906 -5.128906 1.984375 -4.765625 C 1.597656 -4.398438 1.378906 -3.921875 1.328125 -3.328125 L 5.546875 -3.328125 C 5.492188 -3.921875 5.273438 -4.398438 4.890625 -4.765625 C 4.503906 -5.128906 4.019531 -5.3125 3.4375 -5.3125 Z M 3.4375 -5.3125 "/></g></g></g></svg>