<svg xmlns="http://www.w3.org/2000/svg" xmlns:xlink="http://www.w3.org/1999/xlink" width="500" zoomAndPan="magnify" viewBox="0 0 375 374.999991" height="500" preserveAspectRatio="xMidYMid meet" version="1.0"><defs><g/><clipPath id="19a7ed3d95"><path d="M 58 154.539062 L 119 154.539062 L 119 175 L 58 175 Z M 58 154.539062 " clip-rule="nonzero"/></clipPath><clipPath id="0a7cb09926"><path d="M 58 154.539062 L 119 154.539062 L 119 207.789062 L 58 207.789062 Z M 58 154.539062 " clip-rule="nonzero"/></clipPath><clipPath id="11e92353bd"><path d="M 202.734375 157.566406 L 323.484375 157.566406 L 323.484375 167 L 202.734375 167 Z M 202.734375 157.566406 " clip-rule="nonzero"/></clipPath><clipPath id="a8321a80c4"><path d="M 79.675781 212.589844 L 202.675781 212.589844 L 202.675781 222.339844 L 79.675781 222.339844 Z M 79.675781 212.589844 " clip-rule="nonzero"/></clipPath><clipPath id="02398a0a71"><path d="M 292.011719 195.773438 L 301 195.773438 L 301 219.773438 L 292.011719 219.773438 Z M 292.011719 195.773438 " clip-rule="nonzero"/></clipPath></defs><g fill="#000000" fill-opacity="1"><g transform="translate(111.657324, 203.275007)"><g><path d="M 4.609375 -38.734375 C 5.484375 -39.597656 6.597656 -40.03125 7.953125 -40.03125 C 9.316406 -40.03125 10.429688 -39.597656 11.296875 -38.734375 C 12.160156 -37.867188 12.59375 -36.753906 12.59375 -35.390625 C 12.59375 -34.035156 12.160156 -32.914062 11.296875 -32.03125 C 10.429688 -31.144531 9.316406 -30.703125 7.953125 -30.703125 C 6.597656 -30.703125 5.484375 -31.144531 4.609375 -32.03125 C 3.742188 -32.914062 3.3125 -34.035156 3.3125 -35.390625 C 3.3125 -36.753906 3.742188 -37.867188 4.609375 -38.734375 Z M 12.296875 0 L 3.515625 0 L 3.515625 -27.484375 L 12.296875 -27.484375 Z M 12.296875 0 "/></g></g></g><g fill="#000000" fill-opacity="1"><g transform="translate(127.514669, 203.275007)"><g><path d="M 12.34375 -27.484375 L 12.34375 -22.84375 C 14.28125 -26.144531 17.253906 -27.828125 21.265625 -27.890625 L 21.265625 -19.9375 C 18.753906 -20.175781 16.695312 -19.757812 15.09375 -18.6875 C 13.5 -17.613281 12.582031 -16.09375 12.34375 -14.125 L 12.34375 0 L 3.515625 0 L 3.515625 -27.484375 Z M 12.34375 -27.484375 "/></g></g></g><g fill="#000000" fill-opacity="1"><g transform="translate(149.286651, 203.275007)"><g><path d="M 19.53125 -7.59375 L 21.265625 -1.484375 C 19.117188 -0.222656 16.671875 0.40625 13.921875 0.40625 C 11.203125 0.40625 9 -0.347656 7.3125 -1.859375 C 5.632812 -3.367188 4.796875 -5.519531 4.796875 -8.3125 L 4.796875 -20.453125 L 0.96875 -20.453125 L 0.96875 -26.21875 L 4.796875 -26.21875 L 4.796875 -33.859375 L 13.5625 -33.859375 L 13.5625 -26.265625 L 20.75 -26.265625 L 20.75 -20.453125 L 13.5625 -20.453125 L 13.5625 -9.6875 C 13.5625 -8.632812 13.773438 -7.859375 14.203125 -7.359375 C 14.628906 -6.867188 15.265625 -6.644531 16.109375 -6.6875 C 16.929688 -6.6875 18.070312 -6.988281 19.53125 -7.59375 Z M 19.53125 -7.59375 "/></g></g></g><g fill="#000000" fill-opacity="1"><g transform="translate(171.466547, 203.275007)"><g><path d="M 30.296875 -27.484375 L 30.296875 0 L 21.46875 0 L 21.46875 -4.53125 C 19.601562 -1.269531 16.628906 0.359375 12.546875 0.359375 C 9.554688 0.359375 7.164062 -0.59375 5.375 -2.5 C 3.59375 -4.40625 2.703125 -6.957031 2.703125 -10.15625 L 2.703125 -27.484375 L 11.53125 -27.484375 L 11.53125 -12.640625 C 11.53125 -11.015625 11.945312 -9.734375 12.78125 -8.796875 C 13.613281 -7.859375 14.722656 -7.390625 16.109375 -7.390625 C 17.773438 -7.429688 19.082031 -8.050781 20.03125 -9.25 C 20.988281 -10.457031 21.46875 -12.015625 21.46875 -13.921875 L 21.46875 -27.484375 Z M 30.296875 -27.484375 "/></g></g></g><g fill="#000000" fill-opacity="1"><g transform="translate(205.271762, 203.275007)"><g><path d="M 15.5 -27.796875 C 18.21875 -27.796875 20.640625 -27.257812 22.765625 -26.1875 C 24.890625 -25.113281 26.550781 -23.59375 27.75 -21.625 L 21.421875 -17.796875 C 20.054688 -19.703125 18.203125 -20.65625 15.859375 -20.65625 C 14.160156 -20.65625 12.773438 -20.015625 11.703125 -18.734375 C 10.628906 -17.460938 10.09375 -15.789062 10.09375 -13.71875 C 10.09375 -11.613281 10.617188 -9.921875 11.671875 -8.640625 C 12.734375 -7.367188 14.128906 -6.734375 15.859375 -6.734375 C 18.441406 -6.734375 20.3125 -7.769531 21.46875 -9.84375 L 27.890625 -6.0625 C 26.773438 -4.03125 25.132812 -2.457031 22.96875 -1.34375 C 20.8125 -0.238281 18.289062 0.3125 15.40625 0.3125 C 11.15625 0.3125 7.726562 -0.96875 5.125 -3.53125 C 2.519531 -6.101562 1.21875 -9.484375 1.21875 -13.671875 C 1.21875 -17.878906 2.535156 -21.285156 5.171875 -23.890625 C 7.804688 -26.492188 11.25 -27.796875 15.5 -27.796875 Z M 15.5 -27.796875 "/></g></g></g><g fill="#000000" fill-opacity="1"><g transform="translate(233.92716, 203.275007)"><g><path d="M 12.34375 -27.484375 L 12.34375 -22.84375 C 14.28125 -26.144531 17.253906 -27.828125 21.265625 -27.890625 L 21.265625 -19.9375 C 18.753906 -20.175781 16.695312 -19.757812 15.09375 -18.6875 C 13.5 -17.613281 12.582031 -16.09375 12.34375 -14.125 L 12.34375 0 L 3.515625 0 L 3.515625 -27.484375 Z M 12.34375 -27.484375 "/></g></g></g><g fill="#000000" fill-opacity="1"><g transform="translate(255.699142, 203.275007)"><g><path d="M 16.265625 -27.796875 C 20.753906 -27.796875 24.375 -26.507812 27.125 -23.9375 C 29.882812 -21.375 31.265625 -17.984375 31.265625 -13.765625 C 31.265625 -9.554688 29.882812 -6.15625 27.125 -3.5625 C 24.375 -0.976562 20.753906 0.3125 16.265625 0.3125 C 11.742188 0.3125 8.101562 -0.976562 5.34375 -3.5625 C 2.59375 -6.15625 1.21875 -9.554688 1.21875 -13.765625 C 1.21875 -17.984375 2.59375 -21.375 5.34375 -23.9375 C 8.101562 -26.507812 11.742188 -27.796875 16.265625 -27.796875 Z M 16.265625 -20.8125 C 14.429688 -20.8125 12.941406 -20.144531 11.796875 -18.8125 C 10.660156 -17.488281 10.09375 -15.773438 10.09375 -13.671875 C 10.09375 -11.523438 10.660156 -9.796875 11.796875 -8.484375 C 12.941406 -7.179688 14.429688 -6.53125 16.265625 -6.53125 C 18.066406 -6.53125 19.535156 -7.179688 20.671875 -8.484375 C 21.816406 -9.796875 22.390625 -11.523438 22.390625 -13.671875 C 22.390625 -15.773438 21.816406 -17.488281 20.671875 -18.8125 C 19.535156 -20.144531 18.066406 -20.8125 16.265625 -20.8125 Z M 16.265625 -20.8125 "/></g></g></g><g fill="#000000" fill-opacity="1"><g transform="translate(288.178663, 203.275007)"><g><path d="M 20.8125 -27.796875 C 24.6875 -27.796875 27.804688 -26.492188 30.171875 -23.890625 C 32.535156 -21.285156 33.71875 -17.859375 33.71875 -13.609375 C 33.71875 -9.429688 32.5625 -6.066406 30.25 -3.515625 C 27.9375 -0.960938 24.859375 0.3125 21.015625 0.3125 C 17.410156 0.3125 14.601562 -1.015625 12.59375 -3.671875 L 12.59375 9.890625 L 3.78125 9.890625 L 3.78125 -27.484375 L 12.59375 -27.484375 L 12.59375 -23.875 C 14.632812 -26.488281 17.375 -27.796875 20.8125 -27.796875 Z M 18.671875 -6.6875 C 20.503906 -6.6875 21.988281 -7.351562 23.125 -8.6875 C 24.269531 -10.03125 24.84375 -11.753906 24.84375 -13.859375 C 24.84375 -15.972656 24.269531 -17.691406 23.125 -19.015625 C 21.988281 -20.347656 20.503906 -21.015625 18.671875 -21.015625 C 16.898438 -21.015625 15.441406 -20.347656 14.296875 -19.015625 C 13.160156 -17.691406 12.59375 -15.976562 12.59375 -13.875 C 12.59375 -11.726562 13.15625 -9.992188 14.28125 -8.671875 C 15.40625 -7.347656 16.867188 -6.6875 18.671875 -6.6875 Z M 18.671875 -6.6875 "/></g></g></g><g clip-path="url(#19a7ed3d95)"><path fill="#1bafdb" d="M 72.0625 149.710938 C 52.742188 116.195312 49.566406 121.707031 88.207031 121.707031 C 126.902344 121.707031 123.730469 116.195312 104.410156 149.710938 C 85.035156 183.175781 91.382812 183.175781 72.0625 149.710938 Z M 72.0625 149.710938 " fill-opacity="1" fill-rule="evenodd"/></g><g clip-path="url(#0a7cb09926)"><path fill="#004aad" d="M 72.0625 182.058594 C 52.742188 148.542969 49.566406 154.054688 88.207031 154.054688 C 126.902344 154.054688 123.730469 148.542969 104.410156 182.058594 C 85.035156 215.523438 91.382812 215.523438 72.0625 182.058594 Z M 72.0625 182.058594 " fill-opacity="1" fill-rule="evenodd"/></g><g clip-path="url(#11e92353bd)"><path fill="#004aad" d="M 202.734375 157.597656 L 323.789062 157.597656 L 323.789062 166.910156 L 202.734375 166.910156 Z M 202.734375 157.597656 " fill-opacity="1" fill-rule="nonzero"/></g><g clip-path="url(#a8321a80c4)"><path fill="#004aad" d="M 79.675781 212.617188 L 202.734375 212.617188 L 202.734375 222.085938 L 79.675781 222.085938 Z M 79.675781 212.617188 " fill-opacity="1" fill-rule="nonzero"/></g><g clip-path="url(#02398a0a71)"><path fill="#100f0d" d="M 291.996094 234.117188 L 300.988281 234.117188 L 300.988281 195.289062 L 291.996094 195.289062 L 291.996094 234.117188 " fill-opacity="1" fill-rule="nonzero"/></g><g fill="#000000" fill-opacity="1"><g transform="translate(203.451201, 219.3894)"><g><path d="M 4.28125 -8.421875 C 4.863281 -8.421875 5.363281 -8.316406 5.78125 -8.109375 C 6.195312 -7.898438 6.507812 -7.601562 6.71875 -7.21875 C 6.9375 -6.832031 7.046875 -6.378906 7.046875 -5.859375 C 7.046875 -5.335938 6.9375 -4.882812 6.71875 -4.5 C 6.507812 -4.113281 6.195312 -3.816406 5.78125 -3.609375 C 5.363281 -3.398438 4.863281 -3.296875 4.28125 -3.296875 L 2.265625 -3.296875 L 2.265625 0 L 1.265625 0 L 1.265625 -8.421875 Z M 4.25 -4.140625 C 5.425781 -4.140625 6.015625 -4.710938 6.015625 -5.859375 C 6.015625 -7.003906 5.425781 -7.578125 4.25 -7.578125 L 2.265625 -7.578125 L 2.265625 -4.140625 Z M 4.25 -4.140625 "/></g></g></g><g fill="#000000" fill-opacity="1"><g transform="translate(211.124453, 219.3894)"><g><path d="M 1.109375 0 L 1.109375 -6.359375 L 2 -6.359375 L 2 -5.359375 L 2.125 -5.328125 C 2.414062 -6.046875 2.972656 -6.40625 3.796875 -6.40625 C 4.222656 -6.40625 4.546875 -6.328125 4.765625 -6.171875 L 4.515625 -5.375 L 4.40625 -5.359375 C 4.164062 -5.472656 3.90625 -5.53125 3.625 -5.53125 C 3.113281 -5.53125 2.722656 -5.335938 2.453125 -4.953125 C 2.179688 -4.578125 2.046875 -3.960938 2.046875 -3.109375 L 2.046875 0 Z M 1.109375 0 "/></g></g></g><g fill="#000000" fill-opacity="1"><g transform="translate(216.028887, 219.3894)"><g><path d="M 1.578125 -7.578125 C 1.378906 -7.578125 1.21875 -7.640625 1.09375 -7.765625 C 0.96875 -7.890625 0.90625 -8.050781 0.90625 -8.25 C 0.90625 -8.4375 0.96875 -8.59375 1.09375 -8.71875 C 1.21875 -8.84375 1.378906 -8.90625 1.578125 -8.90625 C 1.773438 -8.90625 1.9375 -8.84375 2.0625 -8.71875 C 2.1875 -8.59375 2.25 -8.4375 2.25 -8.25 C 2.25 -8.050781 2.1875 -7.890625 2.0625 -7.765625 C 1.9375 -7.640625 1.773438 -7.578125 1.578125 -7.578125 Z M 1.109375 0 L 1.109375 -6.359375 L 2.046875 -6.359375 L 2.046875 0 Z M 1.109375 0 "/></g></g></g><g fill="#000000" fill-opacity="1"><g transform="translate(219.177626, 219.3894)"><g><path d="M 4.015625 0 L 2.734375 0 L 0.3125 -6.359375 L 1.328125 -6.359375 L 3.328125 -1.078125 L 3.453125 -1.078125 L 5.4375 -6.359375 L 6.421875 -6.359375 Z M 4.015625 0 "/></g></g></g><g fill="#000000" fill-opacity="1"><g transform="translate(225.906831, 219.3894)"><g><path d="M 2.625 0.125 C 2 0.125 1.507812 -0.0351562 1.15625 -0.359375 C 0.800781 -0.691406 0.625 -1.160156 0.625 -1.765625 C 0.625 -2.140625 0.703125 -2.457031 0.859375 -2.71875 C 1.015625 -2.976562 1.253906 -3.1875 1.578125 -3.34375 C 1.910156 -3.507812 2.335938 -3.640625 2.859375 -3.734375 C 3.316406 -3.804688 3.664062 -3.890625 3.90625 -3.984375 C 4.15625 -4.085938 4.316406 -4.195312 4.390625 -4.3125 C 4.472656 -4.4375 4.515625 -4.585938 4.515625 -4.765625 C 4.515625 -5.054688 4.414062 -5.273438 4.21875 -5.421875 C 4.019531 -5.578125 3.703125 -5.65625 3.265625 -5.65625 C 2.859375 -5.65625 2.507812 -5.570312 2.21875 -5.40625 C 1.925781 -5.25 1.65625 -5.015625 1.40625 -4.703125 L 1.296875 -4.703125 L 0.828125 -5.359375 C 1.097656 -5.703125 1.441406 -5.972656 1.859375 -6.171875 C 2.273438 -6.367188 2.742188 -6.46875 3.265625 -6.46875 C 4.015625 -6.46875 4.566406 -6.300781 4.921875 -5.96875 C 5.273438 -5.644531 5.453125 -5.195312 5.453125 -4.625 L 5.453125 -1.25 C 5.453125 -0.894531 5.601562 -0.71875 5.90625 -0.71875 C 6.007812 -0.71875 6.109375 -0.734375 6.203125 -0.765625 L 6.28125 -0.75 L 6.390625 -0.09375 C 6.316406 -0.0507812 6.222656 -0.0195312 6.109375 0 C 5.992188 0.03125 5.878906 0.046875 5.765625 0.046875 C 5.410156 0.046875 5.144531 -0.03125 4.96875 -0.1875 C 4.789062 -0.34375 4.675781 -0.566406 4.625 -0.859375 L 4.515625 -0.875 C 4.328125 -0.539062 4.078125 -0.289062 3.765625 -0.125 C 3.460938 0.0390625 3.082031 0.125 2.625 0.125 Z M 2.828125 -0.625 C 3.179688 -0.625 3.488281 -0.707031 3.75 -0.875 C 4.007812 -1.039062 4.207031 -1.269531 4.34375 -1.5625 C 4.476562 -1.851562 4.546875 -2.195312 4.546875 -2.59375 L 4.546875 -3.390625 L 4.4375 -3.421875 C 4.300781 -3.316406 4.128906 -3.226562 3.921875 -3.15625 C 3.722656 -3.09375 3.4375 -3.035156 3.0625 -2.984375 C 2.695312 -2.929688 2.40625 -2.851562 2.1875 -2.75 C 1.96875 -2.644531 1.8125 -2.515625 1.71875 -2.359375 C 1.632812 -2.203125 1.59375 -2.003906 1.59375 -1.765625 C 1.59375 -1.390625 1.703125 -1.101562 1.921875 -0.90625 C 2.140625 -0.71875 2.441406 -0.625 2.828125 -0.625 Z M 2.828125 -0.625 "/></g></g></g><g fill="#000000" fill-opacity="1"><g transform="translate(232.474858, 219.3894)"><g><path d="M 4.296875 -1.015625 L 4.59375 -0.328125 C 4.445312 -0.179688 4.25 -0.0703125 4 0 C 3.757812 0.0820312 3.5 0.125 3.21875 0.125 C 2 0.125 1.390625 -0.488281 1.390625 -1.71875 L 1.390625 -5.59375 L 0.28125 -5.59375 L 0.28125 -6.359375 L 1.390625 -6.359375 L 1.390625 -7.703125 L 2.328125 -7.859375 L 2.328125 -6.359375 L 4.375 -6.359375 L 4.375 -5.59375 L 2.328125 -5.59375 L 2.328125 -1.8125 C 2.328125 -1.082031 2.644531 -0.71875 3.28125 -0.71875 C 3.625 -0.71875 3.921875 -0.816406 4.171875 -1.015625 Z M 4.296875 -1.015625 "/></g></g></g><g fill="#000000" fill-opacity="1"><g transform="translate(237.310216, 219.3894)"><g><path d="M 6.046875 -2.953125 L 1.6875 -2.953125 C 1.71875 -2.179688 1.90625 -1.613281 2.25 -1.25 C 2.59375 -0.894531 3.0625 -0.71875 3.65625 -0.71875 C 4.113281 -0.71875 4.476562 -0.796875 4.75 -0.953125 C 5.03125 -1.117188 5.25 -1.375 5.40625 -1.71875 L 5.53125 -1.71875 L 6.140625 -1.359375 C 5.953125 -0.898438 5.65625 -0.535156 5.25 -0.265625 C 4.84375 -0.00390625 4.3125 0.125 3.65625 0.125 C 3.039062 0.125 2.507812 0.00390625 2.0625 -0.234375 C 1.625 -0.484375 1.285156 -0.851562 1.046875 -1.34375 C 0.816406 -1.832031 0.703125 -2.441406 0.703125 -3.171875 C 0.703125 -3.890625 0.828125 -4.5 1.078125 -5 C 1.328125 -5.5 1.671875 -5.867188 2.109375 -6.109375 C 2.546875 -6.347656 3.039062 -6.46875 3.59375 -6.46875 C 4.414062 -6.46875 5.050781 -6.238281 5.5 -5.78125 C 5.957031 -5.320312 6.191406 -4.644531 6.203125 -3.75 C 6.203125 -3.394531 6.191406 -3.15625 6.171875 -3.03125 Z M 5.265625 -3.75 C 5.253906 -4.425781 5.101562 -4.914062 4.8125 -5.21875 C 4.53125 -5.519531 4.125 -5.671875 3.59375 -5.671875 C 3.039062 -5.671875 2.601562 -5.515625 2.28125 -5.203125 C 1.96875 -4.898438 1.773438 -4.414062 1.703125 -3.75 Z M 5.265625 -3.75 "/></g></g></g><g fill="#000000" fill-opacity="1"><g transform="translate(244.079716, 219.3894)"><g/></g></g><g fill="#000000" fill-opacity="1"><g transform="translate(246.969418, 219.3894)"><g><path d="M 2.265625 -8.421875 L 2.265625 -0.8125 L 6.3125 -0.8125 L 6.3125 0 L 1.265625 0 L 1.265625 -8.421875 Z M 2.265625 -8.421875 "/></g></g></g><g fill="#000000" fill-opacity="1"><g transform="translate(253.64106, 219.3894)"><g><path d="M 1.578125 -7.578125 C 1.378906 -7.578125 1.21875 -7.640625 1.09375 -7.765625 C 0.96875 -7.890625 0.90625 -8.050781 0.90625 -8.25 C 0.90625 -8.4375 0.96875 -8.59375 1.09375 -8.71875 C 1.21875 -8.84375 1.378906 -8.90625 1.578125 -8.90625 C 1.773438 -8.90625 1.9375 -8.84375 2.0625 -8.71875 C 2.1875 -8.59375 2.25 -8.4375 2.25 -8.25 C 2.25 -8.050781 2.1875 -7.890625 2.0625 -7.765625 C 1.9375 -7.640625 1.773438 -7.578125 1.578125 -7.578125 Z M 1.109375 0 L 1.109375 -6.359375 L 2.046875 -6.359375 L 2.046875 0 Z M 1.109375 0 "/></g></g></g><g fill="#000000" fill-opacity="1"><g transform="translate(256.789798, 219.3894)"><g><path d="M 1.109375 0 L 1.109375 -6.359375 L 2 -6.359375 L 2 -5.421875 L 2.125 -5.390625 C 2.332031 -5.742188 2.585938 -6.007812 2.890625 -6.1875 C 3.203125 -6.375 3.570312 -6.46875 4 -6.46875 C 4.488281 -6.46875 4.867188 -6.375 5.140625 -6.1875 C 5.410156 -6.007812 5.617188 -5.710938 5.765625 -5.296875 L 5.890625 -5.296875 C 6.109375 -5.679688 6.375 -5.972656 6.6875 -6.171875 C 7.007812 -6.367188 7.40625 -6.46875 7.875 -6.46875 C 8.53125 -6.46875 9.019531 -6.289062 9.34375 -5.9375 C 9.664062 -5.59375 9.828125 -5.054688 9.828125 -4.328125 L 9.828125 0 L 8.875 0 L 8.875 -4.3125 C 8.875 -4.769531 8.773438 -5.109375 8.578125 -5.328125 C 8.390625 -5.546875 8.082031 -5.65625 7.65625 -5.65625 C 7.144531 -5.65625 6.726562 -5.46875 6.40625 -5.09375 C 6.09375 -4.726562 5.9375 -4.125 5.9375 -3.28125 L 5.9375 0 L 5 0 L 5 -4.3125 C 5 -4.769531 4.898438 -5.109375 4.703125 -5.328125 C 4.503906 -5.546875 4.191406 -5.65625 3.765625 -5.65625 C 3.253906 -5.65625 2.835938 -5.472656 2.515625 -5.109375 C 2.203125 -4.753906 2.046875 -4.175781 2.046875 -3.375 L 2.046875 0 Z M 1.109375 0 "/></g></g></g><g fill="#000000" fill-opacity="1"><g transform="translate(267.611788, 219.3894)"><g><path d="M 1.578125 -7.578125 C 1.378906 -7.578125 1.21875 -7.640625 1.09375 -7.765625 C 0.96875 -7.890625 0.90625 -8.050781 0.90625 -8.25 C 0.90625 -8.4375 0.96875 -8.59375 1.09375 -8.71875 C 1.21875 -8.84375 1.378906 -8.90625 1.578125 -8.90625 C 1.773438 -8.90625 1.9375 -8.84375 2.0625 -8.71875 C 2.1875 -8.59375 2.25 -8.4375 2.25 -8.25 C 2.25 -8.050781 2.1875 -7.890625 2.0625 -7.765625 C 1.9375 -7.640625 1.773438 -7.578125 1.578125 -7.578125 Z M 1.109375 0 L 1.109375 -6.359375 L 2.046875 -6.359375 L 2.046875 0 Z M 1.109375 0 "/></g></g></g><g fill="#000000" fill-opacity="1"><g transform="translate(270.760527, 219.3894)"><g><path d="M 4.296875 -1.015625 L 4.59375 -0.328125 C 4.445312 -0.179688 4.25 -0.0703125 4 0 C 3.757812 0.0820312 3.5 0.125 3.21875 0.125 C 2 0.125 1.390625 -0.488281 1.390625 -1.71875 L 1.390625 -5.59375 L 0.28125 -5.59375 L 0.28125 -6.359375 L 1.390625 -6.359375 L 1.390625 -7.703125 L 2.328125 -7.859375 L 2.328125 -6.359375 L 4.375 -6.359375 L 4.375 -5.59375 L 2.328125 -5.59375 L 2.328125 -1.8125 C 2.328125 -1.082031 2.644531 -0.71875 3.28125 -0.71875 C 3.625 -0.71875 3.921875 -0.816406 4.171875 -1.015625 Z M 4.296875 -1.015625 "/></g></g></g><g fill="#000000" fill-opacity="1"><g transform="translate(275.595885, 219.3894)"><g><path d="M 6.046875 -2.953125 L 1.6875 -2.953125 C 1.71875 -2.179688 1.90625 -1.613281 2.25 -1.25 C 2.59375 -0.894531 3.0625 -0.71875 3.65625 -0.71875 C 4.113281 -0.71875 4.476562 -0.796875 4.75 -0.953125 C 5.03125 -1.117188 5.25 -1.375 5.40625 -1.71875 L 5.53125 -1.71875 L 6.140625 -1.359375 C 5.953125 -0.898438 5.65625 -0.535156 5.25 -0.265625 C 4.84375 -0.00390625 4.3125 0.125 3.65625 0.125 C 3.039062 0.125 2.507812 0.00390625 2.0625 -0.234375 C 1.625 -0.484375 1.285156 -0.851562 1.046875 -1.34375 C 0.816406 -1.832031 0.703125 -2.441406 0.703125 -3.171875 C 0.703125 -3.890625 0.828125 -4.5 1.078125 -5 C 1.328125 -5.5 1.671875 -5.867188 2.109375 -6.109375 C 2.546875 -6.347656 3.039062 -6.46875 3.59375 -6.46875 C 4.414062 -6.46875 5.050781 -6.238281 5.5 -5.78125 C 5.957031 -5.320312 6.191406 -4.644531 6.203125 -3.75 C 6.203125 -3.394531 6.191406 -3.15625 6.171875 -3.03125 Z M 5.265625 -3.75 C 5.253906 -4.425781 5.101562 -4.914062 4.8125 -5.21875 C 4.53125 -5.519531 4.125 -5.671875 3.59375 -5.671875 C 3.039062 -5.671875 2.601562 -5.515625 2.28125 -5.203125 C 1.96875 -4.898438 1.773438 -4.414062 1.703125 -3.75 Z M 5.265625 -3.75 "/></g></g></g><g fill="#000000" fill-opacity="1"><g transform="translate(282.365385, 219.3894)"><g><path d="M 3.296875 0.125 C 2.785156 0.125 2.332031 0.00390625 1.9375 -0.234375 C 1.550781 -0.484375 1.25 -0.851562 1.03125 -1.34375 C 0.8125 -1.832031 0.703125 -2.441406 0.703125 -3.171875 C 0.703125 -3.898438 0.816406 -4.507812 1.046875 -5 C 1.273438 -5.5 1.59375 -5.867188 2 -6.109375 C 2.40625 -6.347656 2.875 -6.46875 3.40625 -6.46875 C 3.820312 -6.46875 4.195312 -6.390625 4.53125 -6.234375 C 4.875 -6.078125 5.171875 -5.816406 5.421875 -5.453125 L 5.53125 -5.46875 L 5.53125 -8.90625 L 6.46875 -8.90625 L 6.46875 0 L 5.53125 0 L 5.53125 -0.921875 L 5.421875 -0.953125 C 5.210938 -0.640625 4.925781 -0.378906 4.5625 -0.171875 C 4.207031 0.0234375 3.785156 0.125 3.296875 0.125 Z M 3.59375 -0.71875 C 4.175781 -0.71875 4.644531 -0.921875 5 -1.328125 C 5.351562 -1.734375 5.53125 -2.347656 5.53125 -3.171875 C 5.53125 -4.003906 5.351562 -4.625 5 -5.03125 C 4.644531 -5.4375 4.175781 -5.640625 3.59375 -5.640625 C 2.976562 -5.640625 2.503906 -5.441406 2.171875 -5.046875 C 1.847656 -4.648438 1.6875 -4.023438 1.6875 -3.171875 C 1.6875 -1.535156 2.320312 -0.71875 3.59375 -0.71875 Z M 3.59375 -0.71875 "/></g></g></g></svg>