<svg xmlns="http://www.w3.org/2000/svg" xmlns:xlink="http://www.w3.org/1999/xlink" width="500" zoomAndPan="magnify" viewBox="0 0 375 374.999991" height="500" preserveAspectRatio="xMidYMid meet" version="1.0"><defs><clipPath id="755d61b2d3"><path d="M 124 124.65625 L 254 124.65625 L 254 169 L 124 169 Z M 124 124.65625 " clip-rule="nonzero"/></clipPath><clipPath id="2959c117f2"><path d="M 124 124.65625 L 254 124.65625 L 254 238 L 124 238 Z M 124 124.65625 " clip-rule="nonzero"/></clipPath></defs><g clip-path="url(#755d61b2d3)"><path fill="#1bafdb" d="M 154.035156 114.300781 C 112.558594 42.347656 105.746094 54.179688 188.695312 54.179688 C 271.765625 54.179688 264.953125 42.347656 223.476562 114.300781 C 181.882812 186.132812 195.507812 186.132812 154.035156 114.300781 Z M 154.035156 114.300781 " fill-opacity="1" fill-rule="evenodd"/></g><g clip-path="url(#2959c117f2)"><path fill="#004aad" d="M 154.035156 183.742188 C 112.558594 111.789062 105.746094 123.621094 188.695312 123.621094 C 271.765625 123.621094 264.953125 111.789062 223.476562 183.742188 C 181.882812 255.574219 195.507812 255.574219 154.035156 183.742188 Z M 154.035156 183.742188 " fill-opacity="1" fill-rule="evenodd"/></g></svg>